<mxfile host="app.diagrams.net" agent="Mozilla/5.0 (Windows NT 10.0; Win64; x64) AppleWebKit/537.36 (KHTML, like Gecko) Chrome/136.0.0.0 Safari/537.36 Edg/136.0.0.0" version="27.0.9" pages="6">
  <diagram name="第 1 页" id="gNMyras92w1Cgoum5GGY">
    <mxGraphModel dx="311" dy="692" grid="0" gridSize="10" guides="1" tooltips="1" connect="1" arrows="1" fold="1" page="1" pageScale="1" pageWidth="827" pageHeight="1169" math="0" shadow="0">
      <root>
        <mxCell id="0" />
        <mxCell id="1" parent="0" />
        <mxCell id="h6Uq3I6q8xnJgRXJ7iII-1" value="压缩者" style="shape=umlActor;verticalLabelPosition=bottom;verticalAlign=top;html=1;outlineConnect=0;" vertex="1" parent="1">
          <mxGeometry x="43" y="382" width="30" height="60" as="geometry" />
        </mxCell>
        <mxCell id="h6Uq3I6q8xnJgRXJ7iII-2" value="" style="shape=umlBoundary;whiteSpace=wrap;html=1;" vertex="1" parent="1">
          <mxGeometry x="160" y="295" width="81" height="69" as="geometry" />
        </mxCell>
        <mxCell id="h6Uq3I6q8xnJgRXJ7iII-3" value="" style="shape=umlBoundary;whiteSpace=wrap;html=1;" vertex="1" parent="1">
          <mxGeometry x="160" y="465" width="87" height="69" as="geometry" />
        </mxCell>
        <mxCell id="h6Uq3I6q8xnJgRXJ7iII-7" value="" style="endArrow=classic;html=1;rounded=0;entryX=0;entryY=0.5;entryDx=0;entryDy=0;entryPerimeter=0;" edge="1" parent="1" target="h6Uq3I6q8xnJgRXJ7iII-3">
          <mxGeometry width="50" height="50" relative="1" as="geometry">
            <mxPoint x="73" y="412" as="sourcePoint" />
            <mxPoint x="223" y="474" as="targetPoint" />
          </mxGeometry>
        </mxCell>
        <mxCell id="h6Uq3I6q8xnJgRXJ7iII-10" value="" style="endArrow=classic;html=1;rounded=0;entryX=0.003;entryY=0.504;entryDx=0;entryDy=0;entryPerimeter=0;" edge="1" parent="1" target="h6Uq3I6q8xnJgRXJ7iII-2">
          <mxGeometry width="50" height="50" relative="1" as="geometry">
            <mxPoint x="73" y="412" as="sourcePoint" />
            <mxPoint x="133" y="362" as="targetPoint" />
          </mxGeometry>
        </mxCell>
        <mxCell id="h6Uq3I6q8xnJgRXJ7iII-11" value="" style="ellipse;shape=umlControl;whiteSpace=wrap;html=1;" vertex="1" parent="1">
          <mxGeometry x="331" y="177" width="70" height="80" as="geometry" />
        </mxCell>
        <mxCell id="h6Uq3I6q8xnJgRXJ7iII-12" value="" style="ellipse;shape=umlControl;whiteSpace=wrap;html=1;" vertex="1" parent="1">
          <mxGeometry x="331" y="360" width="70" height="80" as="geometry" />
        </mxCell>
        <mxCell id="h6Uq3I6q8xnJgRXJ7iII-13" value="" style="ellipse;shape=umlControl;whiteSpace=wrap;html=1;" vertex="1" parent="1">
          <mxGeometry x="331" y="511" width="70" height="80" as="geometry" />
        </mxCell>
        <mxCell id="h6Uq3I6q8xnJgRXJ7iII-14" value="" style="ellipse;shape=umlEntity;whiteSpace=wrap;html=1;" vertex="1" parent="1">
          <mxGeometry x="493" y="179" width="80" height="80" as="geometry" />
        </mxCell>
        <mxCell id="h6Uq3I6q8xnJgRXJ7iII-15" value="" style="ellipse;shape=umlEntity;whiteSpace=wrap;html=1;" vertex="1" parent="1">
          <mxGeometry x="493" y="305" width="80" height="80" as="geometry" />
        </mxCell>
        <mxCell id="h6Uq3I6q8xnJgRXJ7iII-16" value="" style="ellipse;shape=umlEntity;whiteSpace=wrap;html=1;" vertex="1" parent="1">
          <mxGeometry x="493" y="424" width="80" height="80" as="geometry" />
        </mxCell>
        <mxCell id="h6Uq3I6q8xnJgRXJ7iII-17" value="" style="ellipse;shape=umlEntity;whiteSpace=wrap;html=1;" vertex="1" parent="1">
          <mxGeometry x="493" y="545" width="80" height="80" as="geometry" />
        </mxCell>
        <mxCell id="h6Uq3I6q8xnJgRXJ7iII-18" value="" style="endArrow=classic;html=1;rounded=0;exitX=1.037;exitY=0.483;exitDx=0;exitDy=0;exitPerimeter=0;entryX=-0.024;entryY=0.65;entryDx=0;entryDy=0;entryPerimeter=0;" edge="1" parent="1" source="h6Uq3I6q8xnJgRXJ7iII-2" target="h6Uq3I6q8xnJgRXJ7iII-11">
          <mxGeometry width="50" height="50" relative="1" as="geometry">
            <mxPoint x="263" y="352" as="sourcePoint" />
            <mxPoint x="323" y="302" as="targetPoint" />
          </mxGeometry>
        </mxCell>
        <mxCell id="h6Uq3I6q8xnJgRXJ7iII-19" value="" style="endArrow=classic;html=1;rounded=0;exitX=-0.005;exitY=0.575;exitDx=0;exitDy=0;exitPerimeter=0;entryX=0.96;entryY=0.667;entryDx=0;entryDy=0;entryPerimeter=0;" edge="1" parent="1" source="h6Uq3I6q8xnJgRXJ7iII-12" target="h6Uq3I6q8xnJgRXJ7iII-2">
          <mxGeometry width="50" height="50" relative="1" as="geometry">
            <mxPoint x="233" y="432" as="sourcePoint" />
            <mxPoint x="248" y="319" as="targetPoint" />
          </mxGeometry>
        </mxCell>
        <mxCell id="h6Uq3I6q8xnJgRXJ7iII-20" value="" style="endArrow=classic;html=1;rounded=0;entryX=-0.024;entryY=0.633;entryDx=0;entryDy=0;entryPerimeter=0;exitX=0.997;exitY=0.6;exitDx=0;exitDy=0;exitPerimeter=0;" edge="1" parent="1" source="h6Uq3I6q8xnJgRXJ7iII-3" target="h6Uq3I6q8xnJgRXJ7iII-12">
          <mxGeometry width="50" height="50" relative="1" as="geometry">
            <mxPoint x="233" y="512" as="sourcePoint" />
            <mxPoint x="283" y="462" as="targetPoint" />
          </mxGeometry>
        </mxCell>
        <mxCell id="h6Uq3I6q8xnJgRXJ7iII-21" value="" style="endArrow=classic;html=1;rounded=0;exitX=0.5;exitY=1;exitDx=0;exitDy=0;entryX=0.433;entryY=0.075;entryDx=0;entryDy=0;entryPerimeter=0;" edge="1" parent="1" source="h6Uq3I6q8xnJgRXJ7iII-44" target="h6Uq3I6q8xnJgRXJ7iII-13">
          <mxGeometry width="50" height="50" relative="1" as="geometry">
            <mxPoint x="293" y="512" as="sourcePoint" />
            <mxPoint x="368" y="492" as="targetPoint" />
          </mxGeometry>
        </mxCell>
        <mxCell id="h6Uq3I6q8xnJgRXJ7iII-22" value="" style="endArrow=classic;startArrow=classic;html=1;rounded=0;entryX=0.5;entryY=1;entryDx=0;entryDy=0;exitX=0.529;exitY=0.008;exitDx=0;exitDy=0;exitPerimeter=0;" edge="1" parent="1" source="h6Uq3I6q8xnJgRXJ7iII-12" target="h6Uq3I6q8xnJgRXJ7iII-45">
          <mxGeometry width="50" height="50" relative="1" as="geometry">
            <mxPoint x="313" y="392" as="sourcePoint" />
            <mxPoint x="363" y="342" as="targetPoint" />
          </mxGeometry>
        </mxCell>
        <mxCell id="h6Uq3I6q8xnJgRXJ7iII-23" value="" style="endArrow=classic;html=1;rounded=0;exitX=0;exitY=0.5;exitDx=0;exitDy=0;entryX=0.967;entryY=0.346;entryDx=0;entryDy=0;entryPerimeter=0;" edge="1" parent="1" source="h6Uq3I6q8xnJgRXJ7iII-14" target="h6Uq3I6q8xnJgRXJ7iII-12">
          <mxGeometry width="50" height="50" relative="1" as="geometry">
            <mxPoint x="333" y="512" as="sourcePoint" />
            <mxPoint x="383" y="462" as="targetPoint" />
          </mxGeometry>
        </mxCell>
        <mxCell id="h6Uq3I6q8xnJgRXJ7iII-24" value="" style="endArrow=classic;html=1;rounded=0;exitX=1.062;exitY=0.583;exitDx=0;exitDy=0;exitPerimeter=0;entryX=0;entryY=0.5;entryDx=0;entryDy=0;" edge="1" parent="1" source="h6Uq3I6q8xnJgRXJ7iII-12" target="h6Uq3I6q8xnJgRXJ7iII-16">
          <mxGeometry width="50" height="50" relative="1" as="geometry">
            <mxPoint x="333" y="512" as="sourcePoint" />
            <mxPoint x="383" y="462" as="targetPoint" />
          </mxGeometry>
        </mxCell>
        <mxCell id="h6Uq3I6q8xnJgRXJ7iII-25" value="" style="endArrow=classic;html=1;rounded=0;exitX=0;exitY=0.5;exitDx=0;exitDy=0;entryX=0.976;entryY=0.392;entryDx=0;entryDy=0;entryPerimeter=0;" edge="1" parent="1" source="h6Uq3I6q8xnJgRXJ7iII-16" target="h6Uq3I6q8xnJgRXJ7iII-13">
          <mxGeometry width="50" height="50" relative="1" as="geometry">
            <mxPoint x="333" y="512" as="sourcePoint" />
            <mxPoint x="383" y="462" as="targetPoint" />
          </mxGeometry>
        </mxCell>
        <mxCell id="h6Uq3I6q8xnJgRXJ7iII-26" value="" style="endArrow=classic;html=1;rounded=0;exitX=0.957;exitY=0.425;exitDx=0;exitDy=0;exitPerimeter=0;entryX=0;entryY=0.5;entryDx=0;entryDy=0;" edge="1" parent="1" source="h6Uq3I6q8xnJgRXJ7iII-13" target="h6Uq3I6q8xnJgRXJ7iII-17">
          <mxGeometry width="50" height="50" relative="1" as="geometry">
            <mxPoint x="333" y="512" as="sourcePoint" />
            <mxPoint x="383" y="462" as="targetPoint" />
          </mxGeometry>
        </mxCell>
        <mxCell id="h6Uq3I6q8xnJgRXJ7iII-27" value="" style="endArrow=none;html=1;rounded=0;entryX=0;entryY=0.5;entryDx=0;entryDy=0;exitX=1.048;exitY=0.467;exitDx=0;exitDy=0;exitPerimeter=0;" edge="1" parent="1" source="h6Uq3I6q8xnJgRXJ7iII-12" target="h6Uq3I6q8xnJgRXJ7iII-15">
          <mxGeometry width="50" height="50" relative="1" as="geometry">
            <mxPoint x="397" y="391" as="sourcePoint" />
            <mxPoint x="383" y="462" as="targetPoint" />
          </mxGeometry>
        </mxCell>
        <mxCell id="h6Uq3I6q8xnJgRXJ7iII-29" value="frame" style="shape=umlFrame;whiteSpace=wrap;html=1;pointerEvents=0;" vertex="1" parent="1">
          <mxGeometry x="13" y="167" width="600" height="490" as="geometry" />
        </mxCell>
        <mxCell id="h6Uq3I6q8xnJgRXJ7iII-31" value="压缩进行界面" style="text;html=1;align=center;verticalAlign=middle;whiteSpace=wrap;rounded=0;" vertex="1" parent="1">
          <mxGeometry x="167" y="367" width="84" height="20" as="geometry" />
        </mxCell>
        <mxCell id="h6Uq3I6q8xnJgRXJ7iII-32" value="压缩包" style="text;html=1;align=center;verticalAlign=middle;whiteSpace=wrap;rounded=0;" vertex="1" parent="1">
          <mxGeometry x="493" y="628" width="84" height="20" as="geometry" />
        </mxCell>
        <mxCell id="h6Uq3I6q8xnJgRXJ7iII-33" value="打包器" style="text;html=1;align=center;verticalAlign=middle;whiteSpace=wrap;rounded=0;" vertex="1" parent="1">
          <mxGeometry x="324" y="594" width="84" height="20" as="geometry" />
        </mxCell>
        <mxCell id="h6Uq3I6q8xnJgRXJ7iII-34" value="压缩选择界面" style="text;html=1;align=center;verticalAlign=middle;whiteSpace=wrap;rounded=0;" vertex="1" parent="1">
          <mxGeometry x="167" y="541" width="84" height="20" as="geometry" />
        </mxCell>
        <mxCell id="h6Uq3I6q8xnJgRXJ7iII-39" value="压缩配置" style="text;html=1;align=center;verticalAlign=middle;whiteSpace=wrap;rounded=0;" vertex="1" parent="1">
          <mxGeometry x="493" y="263" width="84" height="20" as="geometry" />
        </mxCell>
        <mxCell id="h6Uq3I6q8xnJgRXJ7iII-40" value="源文件" style="text;html=1;align=center;verticalAlign=middle;whiteSpace=wrap;rounded=0;" vertex="1" parent="1">
          <mxGeometry x="496" y="390" width="84" height="20" as="geometry" />
        </mxCell>
        <mxCell id="h6Uq3I6q8xnJgRXJ7iII-41" value="字典" style="text;html=1;align=center;verticalAlign=middle;whiteSpace=wrap;rounded=0;" vertex="1" parent="1">
          <mxGeometry x="491" y="508" width="84" height="20" as="geometry" />
        </mxCell>
        <mxCell id="h6Uq3I6q8xnJgRXJ7iII-44" value="压缩器" style="text;html=1;align=center;verticalAlign=middle;whiteSpace=wrap;rounded=0;" vertex="1" parent="1">
          <mxGeometry x="327" y="442" width="84" height="20" as="geometry" />
        </mxCell>
        <mxCell id="h6Uq3I6q8xnJgRXJ7iII-45" value="监听器" style="text;html=1;align=center;verticalAlign=middle;whiteSpace=wrap;rounded=0;" vertex="1" parent="1">
          <mxGeometry x="327" y="263" width="84" height="20" as="geometry" />
        </mxCell>
      </root>
    </mxGraphModel>
  </diagram>
  <diagram id="VgDEBpYPeeDR7pUzJLNw" name="第 2 页">
    <mxGraphModel dx="887" dy="989" grid="0" gridSize="10" guides="1" tooltips="1" connect="1" arrows="1" fold="1" page="1" pageScale="1" pageWidth="827" pageHeight="1169" math="0" shadow="0">
      <root>
        <mxCell id="0" />
        <mxCell id="1" parent="0" />
        <mxCell id="HNhk1EtyoWlDkvR64V1A-10" value="" style="edgeStyle=none;rounded=0;orthogonalLoop=1;jettySize=auto;html=1;exitX=0.965;exitY=0.518;exitDx=0;exitDy=0;exitPerimeter=0;" edge="1" parent="1" source="HNhk1EtyoWlDkvR64V1A-27" target="HNhk1EtyoWlDkvR64V1A-9">
          <mxGeometry relative="1" as="geometry" />
        </mxCell>
        <mxCell id="HNhk1EtyoWlDkvR64V1A-4" value="HIS医生工作站" style="shape=umlActor;verticalLabelPosition=bottom;verticalAlign=top;html=1;" vertex="1" parent="1">
          <mxGeometry x="40" y="141" width="32" height="66" as="geometry" />
        </mxCell>
        <mxCell id="HNhk1EtyoWlDkvR64V1A-8" style="edgeStyle=none;rounded=0;orthogonalLoop=1;jettySize=auto;html=1;" edge="1" parent="1" source="HNhk1EtyoWlDkvR64V1A-4" target="HNhk1EtyoWlDkvR64V1A-27">
          <mxGeometry relative="1" as="geometry" />
        </mxCell>
        <mxCell id="HNhk1EtyoWlDkvR64V1A-16" style="edgeStyle=none;rounded=0;orthogonalLoop=1;jettySize=auto;html=1;" edge="1" parent="1" source="HNhk1EtyoWlDkvR64V1A-9" target="HNhk1EtyoWlDkvR64V1A-15">
          <mxGeometry relative="1" as="geometry" />
        </mxCell>
        <mxCell id="HNhk1EtyoWlDkvR64V1A-9" value="" style="ellipse;shape=umlControl;whiteSpace=wrap;html=1;" vertex="1" parent="1">
          <mxGeometry x="335" y="127" width="70" height="80" as="geometry" />
        </mxCell>
        <mxCell id="HNhk1EtyoWlDkvR64V1A-12" value="公开接口" style="text;html=1;align=center;verticalAlign=middle;whiteSpace=wrap;rounded=0;" vertex="1" parent="1">
          <mxGeometry x="171" y="205" width="60" height="30" as="geometry" />
        </mxCell>
        <mxCell id="HNhk1EtyoWlDkvR64V1A-14" value="获得处方" style="text;html=1;align=center;verticalAlign=middle;whiteSpace=wrap;rounded=0;" vertex="1" parent="1">
          <mxGeometry x="340" y="205" width="60" height="30" as="geometry" />
        </mxCell>
        <mxCell id="HNhk1EtyoWlDkvR64V1A-15" value="" style="ellipse;shape=umlEntity;whiteSpace=wrap;html=1;" vertex="1" parent="1">
          <mxGeometry x="488" y="127" width="80" height="80" as="geometry" />
        </mxCell>
        <mxCell id="HNhk1EtyoWlDkvR64V1A-17" value="处方" style="text;html=1;align=center;verticalAlign=middle;whiteSpace=wrap;rounded=0;" vertex="1" parent="1">
          <mxGeometry x="502" y="205" width="60" height="30" as="geometry" />
        </mxCell>
        <mxCell id="HNhk1EtyoWlDkvR64V1A-34" style="edgeStyle=none;rounded=0;orthogonalLoop=1;jettySize=auto;html=1;" edge="1" parent="1" source="HNhk1EtyoWlDkvR64V1A-18" target="HNhk1EtyoWlDkvR64V1A-32">
          <mxGeometry relative="1" as="geometry" />
        </mxCell>
        <mxCell id="HNhk1EtyoWlDkvR64V1A-37" style="edgeStyle=none;rounded=0;orthogonalLoop=1;jettySize=auto;html=1;entryX=0;entryY=0;entryDx=0;entryDy=0;" edge="1" parent="1" source="HNhk1EtyoWlDkvR64V1A-18" target="HNhk1EtyoWlDkvR64V1A-36">
          <mxGeometry relative="1" as="geometry" />
        </mxCell>
        <mxCell id="HNhk1EtyoWlDkvR64V1A-38" style="edgeStyle=none;rounded=0;orthogonalLoop=1;jettySize=auto;html=1;" edge="1" parent="1" source="HNhk1EtyoWlDkvR64V1A-18" target="HNhk1EtyoWlDkvR64V1A-33">
          <mxGeometry relative="1" as="geometry" />
        </mxCell>
        <mxCell id="HNhk1EtyoWlDkvR64V1A-18" value="" style="ellipse;shape=umlControl;whiteSpace=wrap;html=1;" vertex="1" parent="1">
          <mxGeometry x="414" y="252" width="70" height="80" as="geometry" />
        </mxCell>
        <mxCell id="HNhk1EtyoWlDkvR64V1A-19" style="edgeStyle=none;rounded=0;orthogonalLoop=1;jettySize=auto;html=1;" edge="1" parent="1" source="HNhk1EtyoWlDkvR64V1A-14" target="HNhk1EtyoWlDkvR64V1A-18">
          <mxGeometry relative="1" as="geometry">
            <mxPoint x="366" y="285" as="targetPoint" />
          </mxGeometry>
        </mxCell>
        <mxCell id="HNhk1EtyoWlDkvR64V1A-20" style="edgeStyle=none;rounded=0;orthogonalLoop=1;jettySize=auto;html=1;" edge="1" parent="1" source="HNhk1EtyoWlDkvR64V1A-15" target="HNhk1EtyoWlDkvR64V1A-18">
          <mxGeometry relative="1" as="geometry">
            <mxPoint x="512" y="268" as="targetPoint" />
          </mxGeometry>
        </mxCell>
        <mxCell id="HNhk1EtyoWlDkvR64V1A-21" value="检查" style="text;html=1;align=center;verticalAlign=middle;whiteSpace=wrap;rounded=0;" vertex="1" parent="1">
          <mxGeometry x="419" y="334" width="60" height="30" as="geometry" />
        </mxCell>
        <mxCell id="HNhk1EtyoWlDkvR64V1A-22" value="" style="ellipse;shape=umlEntity;whiteSpace=wrap;html=1;" vertex="1" parent="1">
          <mxGeometry x="554" y="263" width="71" height="69" as="geometry" />
        </mxCell>
        <mxCell id="HNhk1EtyoWlDkvR64V1A-23" style="edgeStyle=none;rounded=0;orthogonalLoop=1;jettySize=auto;html=1;entryX=1.052;entryY=0.579;entryDx=0;entryDy=0;entryPerimeter=0;" edge="1" parent="1" source="HNhk1EtyoWlDkvR64V1A-22" target="HNhk1EtyoWlDkvR64V1A-18">
          <mxGeometry relative="1" as="geometry" />
        </mxCell>
        <mxCell id="HNhk1EtyoWlDkvR64V1A-24" value="规则" style="text;html=1;align=center;verticalAlign=middle;whiteSpace=wrap;rounded=0;" vertex="1" parent="1">
          <mxGeometry x="559.5" y="334" width="60" height="30" as="geometry" />
        </mxCell>
        <mxCell id="HNhk1EtyoWlDkvR64V1A-25" value="HIS医生工作站" style="shape=umlActor;verticalLabelPosition=bottom;verticalAlign=top;html=1;" vertex="1" parent="1">
          <mxGeometry x="40" y="392" width="30" height="60" as="geometry" />
        </mxCell>
        <mxCell id="HNhk1EtyoWlDkvR64V1A-26" value="HIS医生工作站" style="shape=umlActor;verticalLabelPosition=bottom;verticalAlign=top;html=1;" vertex="1" parent="1">
          <mxGeometry x="40" y="584" width="30" height="60" as="geometry" />
        </mxCell>
        <mxCell id="HNhk1EtyoWlDkvR64V1A-27" value="" style="shape=umlBoundary;whiteSpace=wrap;html=1;" vertex="1" parent="1">
          <mxGeometry x="157" y="135" width="88" height="72" as="geometry" />
        </mxCell>
        <mxCell id="HNhk1EtyoWlDkvR64V1A-28" value="" style="shape=umlBoundary;whiteSpace=wrap;html=1;" vertex="1" parent="1">
          <mxGeometry x="157" y="572" width="88" height="72" as="geometry" />
        </mxCell>
        <mxCell id="HNhk1EtyoWlDkvR64V1A-29" value="" style="shape=umlBoundary;whiteSpace=wrap;html=1;" vertex="1" parent="1">
          <mxGeometry x="157" y="380" width="88" height="72" as="geometry" />
        </mxCell>
        <mxCell id="HNhk1EtyoWlDkvR64V1A-40" style="edgeStyle=none;rounded=0;orthogonalLoop=1;jettySize=auto;html=1;" edge="1" parent="1" source="HNhk1EtyoWlDkvR64V1A-32" target="HNhk1EtyoWlDkvR64V1A-29">
          <mxGeometry relative="1" as="geometry" />
        </mxCell>
        <mxCell id="HNhk1EtyoWlDkvR64V1A-32" value="" style="ellipse;shape=umlControl;whiteSpace=wrap;html=1;" vertex="1" parent="1">
          <mxGeometry x="335" y="372" width="70" height="80" as="geometry" />
        </mxCell>
        <mxCell id="HNhk1EtyoWlDkvR64V1A-42" style="edgeStyle=none;rounded=0;orthogonalLoop=1;jettySize=auto;html=1;" edge="1" parent="1" source="HNhk1EtyoWlDkvR64V1A-33" target="HNhk1EtyoWlDkvR64V1A-28">
          <mxGeometry relative="1" as="geometry" />
        </mxCell>
        <mxCell id="HNhk1EtyoWlDkvR64V1A-33" value="" style="ellipse;shape=umlControl;whiteSpace=wrap;html=1;" vertex="1" parent="1">
          <mxGeometry x="330" y="564" width="70" height="80" as="geometry" />
        </mxCell>
        <mxCell id="HNhk1EtyoWlDkvR64V1A-36" value="" style="ellipse;shape=umlEntity;whiteSpace=wrap;html=1;" vertex="1" parent="1">
          <mxGeometry x="554" y="383" width="71" height="69" as="geometry" />
        </mxCell>
        <mxCell id="HNhk1EtyoWlDkvR64V1A-39" style="edgeStyle=none;rounded=0;orthogonalLoop=1;jettySize=auto;html=1;entryX=1.006;entryY=0.569;entryDx=0;entryDy=0;entryPerimeter=0;" edge="1" parent="1" source="HNhk1EtyoWlDkvR64V1A-36" target="HNhk1EtyoWlDkvR64V1A-32">
          <mxGeometry relative="1" as="geometry" />
        </mxCell>
        <mxCell id="HNhk1EtyoWlDkvR64V1A-41" style="edgeStyle=none;rounded=0;orthogonalLoop=1;jettySize=auto;html=1;entryX=1;entryY=0.3333333333333333;entryDx=0;entryDy=0;entryPerimeter=0;" edge="1" parent="1" source="HNhk1EtyoWlDkvR64V1A-29" target="HNhk1EtyoWlDkvR64V1A-25">
          <mxGeometry relative="1" as="geometry" />
        </mxCell>
        <mxCell id="HNhk1EtyoWlDkvR64V1A-43" style="edgeStyle=none;rounded=0;orthogonalLoop=1;jettySize=auto;html=1;entryX=1;entryY=0.3333333333333333;entryDx=0;entryDy=0;entryPerimeter=0;" edge="1" parent="1" source="HNhk1EtyoWlDkvR64V1A-28" target="HNhk1EtyoWlDkvR64V1A-26">
          <mxGeometry relative="1" as="geometry" />
        </mxCell>
        <mxCell id="HNhk1EtyoWlDkvR64V1A-44" value="结果" style="text;html=1;align=center;verticalAlign=middle;whiteSpace=wrap;rounded=0;" vertex="1" parent="1">
          <mxGeometry x="559.5" y="452" width="60" height="30" as="geometry" />
        </mxCell>
        <mxCell id="HNhk1EtyoWlDkvR64V1A-45" value="显示结果" style="text;html=1;align=center;verticalAlign=middle;whiteSpace=wrap;rounded=0;" vertex="1" parent="1">
          <mxGeometry x="340" y="452" width="60" height="30" as="geometry" />
        </mxCell>
        <mxCell id="HNhk1EtyoWlDkvR64V1A-46" value="结果界面" style="text;html=1;align=center;verticalAlign=middle;whiteSpace=wrap;rounded=0;" vertex="1" parent="1">
          <mxGeometry x="181" y="454" width="60" height="30" as="geometry" />
        </mxCell>
        <mxCell id="HNhk1EtyoWlDkvR64V1A-47" value="记录违规用药" style="text;html=1;align=center;verticalAlign=middle;whiteSpace=wrap;rounded=0;" vertex="1" parent="1">
          <mxGeometry x="322.5" y="644" width="85" height="19.5" as="geometry" />
        </mxCell>
        <mxCell id="HNhk1EtyoWlDkvR64V1A-48" value="考试系统Access" style="text;html=1;align=center;verticalAlign=middle;whiteSpace=wrap;rounded=0;" vertex="1" parent="1">
          <mxGeometry x="164.5" y="644" width="93" height="27" as="geometry" />
        </mxCell>
        <mxCell id="HNhk1EtyoWlDkvR64V1A-49" value="frame" style="shape=umlFrame;whiteSpace=wrap;html=1;pointerEvents=0;" vertex="1" parent="1">
          <mxGeometry y="45" width="845" height="663" as="geometry" />
        </mxCell>
      </root>
    </mxGraphModel>
  </diagram>
  <diagram id="06hQINRbxMThACi3TqIZ" name="第 3 页">
    <mxGraphModel dx="1738" dy="824" grid="0" gridSize="10" guides="1" tooltips="1" connect="1" arrows="1" fold="1" page="1" pageScale="1" pageWidth="827" pageHeight="1169" math="0" shadow="0">
      <root>
        <mxCell id="0" />
        <mxCell id="1" parent="0" />
        <mxCell id="Xwbkvn60TEe5b5JAbdBo-5" style="edgeStyle=none;rounded=0;orthogonalLoop=1;jettySize=auto;html=1;entryX=0;entryY=0.5;entryDx=0;entryDy=0;" edge="1" parent="1" source="Xwbkvn60TEe5b5JAbdBo-1" target="Xwbkvn60TEe5b5JAbdBo-2">
          <mxGeometry relative="1" as="geometry" />
        </mxCell>
        <mxCell id="Xwbkvn60TEe5b5JAbdBo-6" style="edgeStyle=none;rounded=0;orthogonalLoop=1;jettySize=auto;html=1;entryX=0;entryY=0.5;entryDx=0;entryDy=0;" edge="1" parent="1" source="Xwbkvn60TEe5b5JAbdBo-1" target="Xwbkvn60TEe5b5JAbdBo-3">
          <mxGeometry relative="1" as="geometry" />
        </mxCell>
        <mxCell id="Xwbkvn60TEe5b5JAbdBo-7" style="edgeStyle=none;rounded=0;orthogonalLoop=1;jettySize=auto;html=1;entryX=0;entryY=0.5;entryDx=0;entryDy=0;" edge="1" parent="1" source="Xwbkvn60TEe5b5JAbdBo-1" target="Xwbkvn60TEe5b5JAbdBo-4">
          <mxGeometry relative="1" as="geometry" />
        </mxCell>
        <mxCell id="Xwbkvn60TEe5b5JAbdBo-15" style="edgeStyle=none;rounded=0;orthogonalLoop=1;jettySize=auto;html=1;entryX=0;entryY=0.5;entryDx=0;entryDy=0;" edge="1" parent="1" source="Xwbkvn60TEe5b5JAbdBo-1" target="Xwbkvn60TEe5b5JAbdBo-9">
          <mxGeometry relative="1" as="geometry" />
        </mxCell>
        <mxCell id="Xwbkvn60TEe5b5JAbdBo-1" value="前台服务员" style="shape=umlActor;verticalLabelPosition=bottom;verticalAlign=top;html=1;" vertex="1" parent="1">
          <mxGeometry x="54" y="162" width="30" height="60" as="geometry" />
        </mxCell>
        <mxCell id="Xwbkvn60TEe5b5JAbdBo-2" value="办理申请手续" style="ellipse;whiteSpace=wrap;html=1;" vertex="1" parent="1">
          <mxGeometry x="152" y="81" width="106" height="52" as="geometry" />
        </mxCell>
        <mxCell id="Xwbkvn60TEe5b5JAbdBo-3" value="管理参加人" style="ellipse;whiteSpace=wrap;html=1;" vertex="1" parent="1">
          <mxGeometry x="155" y="166" width="106" height="52" as="geometry" />
        </mxCell>
        <mxCell id="Xwbkvn60TEe5b5JAbdBo-4" value="完成支付" style="ellipse;whiteSpace=wrap;html=1;" vertex="1" parent="1">
          <mxGeometry x="160" y="251" width="106" height="52" as="geometry" />
        </mxCell>
        <mxCell id="Xwbkvn60TEe5b5JAbdBo-8" value="打印旅游确认书和余额交款单" style="ellipse;whiteSpace=wrap;html=1;" vertex="1" parent="1">
          <mxGeometry x="303" y="116" width="106" height="52" as="geometry" />
        </mxCell>
        <mxCell id="Xwbkvn60TEe5b5JAbdBo-9" value="登录" style="ellipse;whiteSpace=wrap;html=1;" vertex="1" parent="1">
          <mxGeometry x="305" y="210" width="106" height="52" as="geometry" />
        </mxCell>
        <mxCell id="Xwbkvn60TEe5b5JAbdBo-13" style="edgeStyle=none;rounded=0;orthogonalLoop=1;jettySize=auto;html=1;entryX=1;entryY=0.5;entryDx=0;entryDy=0;" edge="1" parent="1" source="Xwbkvn60TEe5b5JAbdBo-10" target="Xwbkvn60TEe5b5JAbdBo-8">
          <mxGeometry relative="1" as="geometry" />
        </mxCell>
        <mxCell id="Xwbkvn60TEe5b5JAbdBo-14" style="edgeStyle=none;rounded=0;orthogonalLoop=1;jettySize=auto;html=1;entryX=1;entryY=0.5;entryDx=0;entryDy=0;" edge="1" parent="1" source="Xwbkvn60TEe5b5JAbdBo-10" target="Xwbkvn60TEe5b5JAbdBo-9">
          <mxGeometry relative="1" as="geometry" />
        </mxCell>
        <mxCell id="Xwbkvn60TEe5b5JAbdBo-10" value="收款员工" style="shape=umlActor;verticalLabelPosition=bottom;verticalAlign=top;html=1;" vertex="1" parent="1">
          <mxGeometry x="463" y="153" width="30" height="60" as="geometry" />
        </mxCell>
        <mxCell id="Xwbkvn60TEe5b5JAbdBo-19" style="edgeStyle=none;rounded=0;orthogonalLoop=1;jettySize=auto;html=1;" edge="1" parent="1" source="Xwbkvn60TEe5b5JAbdBo-16" target="Xwbkvn60TEe5b5JAbdBo-17">
          <mxGeometry relative="1" as="geometry" />
        </mxCell>
        <mxCell id="Xwbkvn60TEe5b5JAbdBo-16" value="时间" style="shape=umlActor;verticalLabelPosition=bottom;verticalAlign=top;html=1;" vertex="1" parent="1">
          <mxGeometry x="54" y="397" width="30" height="60" as="geometry" />
        </mxCell>
        <mxCell id="Xwbkvn60TEe5b5JAbdBo-20" style="edgeStyle=none;rounded=0;orthogonalLoop=1;jettySize=auto;html=1;" edge="1" parent="1" source="Xwbkvn60TEe5b5JAbdBo-17" target="Xwbkvn60TEe5b5JAbdBo-18">
          <mxGeometry relative="1" as="geometry" />
        </mxCell>
        <mxCell id="Xwbkvn60TEe5b5JAbdBo-17" value="导出财务信息" style="ellipse;whiteSpace=wrap;html=1;" vertex="1" parent="1">
          <mxGeometry x="234" y="401" width="106" height="52" as="geometry" />
        </mxCell>
        <mxCell id="Xwbkvn60TEe5b5JAbdBo-18" value="财务系统" style="shape=umlActor;verticalLabelPosition=bottom;verticalAlign=top;html=1;" vertex="1" parent="1">
          <mxGeometry x="463" y="397" width="30" height="60" as="geometry" />
        </mxCell>
        <mxCell id="Xwbkvn60TEe5b5JAbdBo-21" value="Entity Object" style="ellipse;shape=umlEntity;whiteSpace=wrap;html=1;" vertex="1" parent="1">
          <mxGeometry x="563" y="92" width="63" height="63" as="geometry" />
        </mxCell>
        <mxCell id="Xwbkvn60TEe5b5JAbdBo-22" value="Entity Object" style="ellipse;shape=umlEntity;whiteSpace=wrap;html=1;" vertex="1" parent="1">
          <mxGeometry x="786" y="199" width="63" height="63" as="geometry" />
        </mxCell>
        <mxCell id="Xwbkvn60TEe5b5JAbdBo-23" value="Entity Object" style="ellipse;shape=umlEntity;whiteSpace=wrap;html=1;" vertex="1" parent="1">
          <mxGeometry x="683" y="199" width="63" height="63" as="geometry" />
        </mxCell>
        <mxCell id="Xwbkvn60TEe5b5JAbdBo-24" value="Entity Object" style="ellipse;shape=umlEntity;whiteSpace=wrap;html=1;" vertex="1" parent="1">
          <mxGeometry x="570" y="204.5" width="63" height="63" as="geometry" />
        </mxCell>
        <mxCell id="Xwbkvn60TEe5b5JAbdBo-25" value="Entity Object" style="ellipse;shape=umlEntity;whiteSpace=wrap;html=1;" vertex="1" parent="1">
          <mxGeometry x="786" y="92" width="63" height="63" as="geometry" />
        </mxCell>
        <mxCell id="Xwbkvn60TEe5b5JAbdBo-26" value="Entity Object" style="ellipse;shape=umlEntity;whiteSpace=wrap;html=1;" vertex="1" parent="1">
          <mxGeometry x="677" y="90" width="63" height="63" as="geometry" />
        </mxCell>
        <mxCell id="Xwbkvn60TEe5b5JAbdBo-27" value="路线" style="text;html=1;align=center;verticalAlign=middle;whiteSpace=wrap;rounded=0;" vertex="1" parent="1">
          <mxGeometry x="564.5" y="151" width="60" height="30" as="geometry" />
        </mxCell>
        <mxCell id="Xwbkvn60TEe5b5JAbdBo-28" value="支付明细" style="text;html=1;align=center;verticalAlign=middle;whiteSpace=wrap;rounded=0;" vertex="1" parent="1">
          <mxGeometry x="573" y="262" width="60" height="30" as="geometry" />
        </mxCell>
        <mxCell id="Xwbkvn60TEe5b5JAbdBo-29" value="申请" style="text;html=1;align=center;verticalAlign=middle;whiteSpace=wrap;rounded=0;" vertex="1" parent="1">
          <mxGeometry x="789" y="151" width="60" height="30" as="geometry" />
        </mxCell>
        <mxCell id="Xwbkvn60TEe5b5JAbdBo-30" value="旅游团" style="text;html=1;align=center;verticalAlign=middle;whiteSpace=wrap;rounded=0;" vertex="1" parent="1">
          <mxGeometry x="678.5" y="151" width="60" height="30" as="geometry" />
        </mxCell>
        <mxCell id="Xwbkvn60TEe5b5JAbdBo-31" value="联系人" style="text;html=1;align=center;verticalAlign=middle;whiteSpace=wrap;rounded=0;" vertex="1" parent="1">
          <mxGeometry x="787.5" y="259" width="60" height="30" as="geometry" />
        </mxCell>
        <mxCell id="Xwbkvn60TEe5b5JAbdBo-32" value="参加人" style="text;html=1;align=center;verticalAlign=middle;whiteSpace=wrap;rounded=0;" vertex="1" parent="1">
          <mxGeometry x="688" y="259" width="60" height="30" as="geometry" />
        </mxCell>
        <mxCell id="Xwbkvn60TEe5b5JAbdBo-33" value="" style="shape=umlBoundary;whiteSpace=wrap;html=1;" vertex="1" parent="1">
          <mxGeometry x="563.5" y="351" width="79" height="65" as="geometry" />
        </mxCell>
        <mxCell id="Xwbkvn60TEe5b5JAbdBo-34" value="申请界面类" style="text;html=1;align=center;verticalAlign=middle;whiteSpace=wrap;rounded=0;" vertex="1" parent="1">
          <mxGeometry x="576.75" y="412" width="67.5" height="30" as="geometry" />
        </mxCell>
        <mxCell id="Xwbkvn60TEe5b5JAbdBo-43" value="" style="shape=umlBoundary;whiteSpace=wrap;html=1;" vertex="1" parent="1">
          <mxGeometry x="669" y="351" width="79" height="65" as="geometry" />
        </mxCell>
        <mxCell id="Xwbkvn60TEe5b5JAbdBo-44" value="增加参加人界面类" style="text;html=1;align=center;verticalAlign=middle;whiteSpace=wrap;rounded=0;" vertex="1" parent="1">
          <mxGeometry x="669" y="412" width="101" height="25" as="geometry" />
        </mxCell>
        <mxCell id="Xwbkvn60TEe5b5JAbdBo-45" value="" style="shape=umlBoundary;whiteSpace=wrap;html=1;" vertex="1" parent="1">
          <mxGeometry x="776" y="351" width="79" height="65" as="geometry" />
        </mxCell>
        <mxCell id="Xwbkvn60TEe5b5JAbdBo-46" value="完成支付界面类" style="text;html=1;align=center;verticalAlign=middle;whiteSpace=wrap;rounded=0;" vertex="1" parent="1">
          <mxGeometry x="779" y="413" width="91" height="29" as="geometry" />
        </mxCell>
        <mxCell id="Xwbkvn60TEe5b5JAbdBo-47" value="" style="shape=umlBoundary;whiteSpace=wrap;html=1;" vertex="1" parent="1">
          <mxGeometry x="564.5" y="449" width="79" height="65" as="geometry" />
        </mxCell>
        <mxCell id="Xwbkvn60TEe5b5JAbdBo-48" value="登录界面类" style="text;html=1;align=center;verticalAlign=middle;whiteSpace=wrap;rounded=0;" vertex="1" parent="1">
          <mxGeometry x="573.25" y="511" width="74.5" height="27" as="geometry" />
        </mxCell>
        <mxCell id="Xwbkvn60TEe5b5JAbdBo-49" value="" style="shape=umlBoundary;whiteSpace=wrap;html=1;" vertex="1" parent="1">
          <mxGeometry x="666" y="444" width="79" height="65" as="geometry" />
        </mxCell>
        <mxCell id="Xwbkvn60TEe5b5JAbdBo-50" value="发确认书界面类" style="text;html=1;align=center;verticalAlign=middle;whiteSpace=wrap;rounded=0;" vertex="1" parent="1">
          <mxGeometry x="674.5" y="507" width="87" height="30" as="geometry" />
        </mxCell>
        <mxCell id="Xwbkvn60TEe5b5JAbdBo-51" value="" style="shape=umlBoundary;whiteSpace=wrap;html=1;" vertex="1" parent="1">
          <mxGeometry x="773" y="442" width="79" height="65" as="geometry" />
        </mxCell>
        <mxCell id="Xwbkvn60TEe5b5JAbdBo-52" value="导出财务信息界面类" style="text;html=1;align=center;verticalAlign=middle;whiteSpace=wrap;rounded=0;" vertex="1" parent="1">
          <mxGeometry x="768" y="507" width="113" height="33" as="geometry" />
        </mxCell>
        <mxCell id="Xwbkvn60TEe5b5JAbdBo-53" value="" style="shape=umlBoundary;whiteSpace=wrap;html=1;" vertex="1" parent="1">
          <mxGeometry x="564.5" y="545" width="79" height="65" as="geometry" />
        </mxCell>
        <mxCell id="Xwbkvn60TEe5b5JAbdBo-54" value="财务系统接口类" style="text;html=1;align=center;verticalAlign=middle;whiteSpace=wrap;rounded=0;" vertex="1" parent="1">
          <mxGeometry x="580.5" y="606" width="60" height="30" as="geometry" />
        </mxCell>
        <mxCell id="Xwbkvn60TEe5b5JAbdBo-55" value="" style="ellipse;shape=umlControl;whiteSpace=wrap;html=1;" vertex="1" parent="1">
          <mxGeometry x="57" y="573" width="70" height="80" as="geometry" />
        </mxCell>
        <mxCell id="Xwbkvn60TEe5b5JAbdBo-56" value="申请控制类" style="text;html=1;align=center;verticalAlign=middle;whiteSpace=wrap;rounded=0;" vertex="1" parent="1">
          <mxGeometry x="54.5" y="650" width="75" height="24" as="geometry" />
        </mxCell>
        <mxCell id="Xwbkvn60TEe5b5JAbdBo-57" value="" style="ellipse;shape=umlControl;whiteSpace=wrap;html=1;" vertex="1" parent="1">
          <mxGeometry x="173" y="570.5" width="70" height="80" as="geometry" />
        </mxCell>
        <mxCell id="Xwbkvn60TEe5b5JAbdBo-58" value="增加参加人控制类" style="text;html=1;align=center;verticalAlign=middle;whiteSpace=wrap;rounded=0;" vertex="1" parent="1">
          <mxGeometry x="156.25" y="649.5" width="103.5" height="24.5" as="geometry" />
        </mxCell>
        <mxCell id="Xwbkvn60TEe5b5JAbdBo-59" value="" style="ellipse;shape=umlControl;whiteSpace=wrap;html=1;" vertex="1" parent="1">
          <mxGeometry x="284.5" y="570.5" width="70" height="80" as="geometry" />
        </mxCell>
        <mxCell id="Xwbkvn60TEe5b5JAbdBo-60" value="完成支付控制类" style="text;html=1;align=center;verticalAlign=middle;whiteSpace=wrap;rounded=0;" vertex="1" parent="1">
          <mxGeometry x="271.5" y="648" width="96" height="24.5" as="geometry" />
        </mxCell>
        <mxCell id="Xwbkvn60TEe5b5JAbdBo-61" value="" style="ellipse;shape=umlControl;whiteSpace=wrap;html=1;" vertex="1" parent="1">
          <mxGeometry x="57" y="699" width="70" height="80" as="geometry" />
        </mxCell>
        <mxCell id="Xwbkvn60TEe5b5JAbdBo-62" value="发确认书控制类" style="text;html=1;align=center;verticalAlign=middle;whiteSpace=wrap;rounded=0;" vertex="1" parent="1">
          <mxGeometry x="47.25" y="776" width="89.5" height="21" as="geometry" />
        </mxCell>
        <mxCell id="Xwbkvn60TEe5b5JAbdBo-63" value="" style="ellipse;shape=umlControl;whiteSpace=wrap;html=1;" vertex="1" parent="1">
          <mxGeometry x="173" y="696" width="70" height="80" as="geometry" />
        </mxCell>
        <mxCell id="Xwbkvn60TEe5b5JAbdBo-64" value="登陆控制类" style="text;html=1;align=center;verticalAlign=middle;whiteSpace=wrap;rounded=0;" vertex="1" parent="1">
          <mxGeometry x="163.25" y="773" width="89.5" height="21" as="geometry" />
        </mxCell>
        <mxCell id="Xwbkvn60TEe5b5JAbdBo-65" value="" style="ellipse;shape=umlControl;whiteSpace=wrap;html=1;" vertex="1" parent="1">
          <mxGeometry x="291.75" y="696" width="70" height="80" as="geometry" />
        </mxCell>
        <mxCell id="Xwbkvn60TEe5b5JAbdBo-66" value="到处财务信息控制类" style="text;html=1;align=center;verticalAlign=middle;whiteSpace=wrap;rounded=0;" vertex="1" parent="1">
          <mxGeometry x="271.5" y="773" width="112" height="21" as="geometry" />
        </mxCell>
      </root>
    </mxGraphModel>
  </diagram>
  <diagram id="zUef1xB-YVcpAvvECRUq" name="第 4 页">
    <mxGraphModel dx="1738" dy="824" grid="0" gridSize="10" guides="1" tooltips="1" connect="1" arrows="1" fold="1" page="1" pageScale="1" pageWidth="827" pageHeight="1169" math="0" shadow="0">
      <root>
        <mxCell id="0" />
        <mxCell id="1" parent="0" />
        <mxCell id="vbtOGulgWGnL7WpAo9Rq-51" value="" style="edgeStyle=elbowEdgeStyle;rounded=0;orthogonalLoop=1;jettySize=auto;html=1;" edge="1" parent="1" source="vbtOGulgWGnL7WpAo9Rq-1" target="vbtOGulgWGnL7WpAo9Rq-50">
          <mxGeometry relative="1" as="geometry" />
        </mxCell>
        <mxCell id="vbtOGulgWGnL7WpAo9Rq-52" value="1" style="edgeLabel;html=1;align=center;verticalAlign=middle;resizable=0;points=[];" vertex="1" connectable="0" parent="vbtOGulgWGnL7WpAo9Rq-51">
          <mxGeometry x="-0.7756" y="1" relative="1" as="geometry">
            <mxPoint as="offset" />
          </mxGeometry>
        </mxCell>
        <mxCell id="vbtOGulgWGnL7WpAo9Rq-53" value="0..*" style="edgeLabel;html=1;align=center;verticalAlign=middle;resizable=0;points=[];" vertex="1" connectable="0" parent="vbtOGulgWGnL7WpAo9Rq-51">
          <mxGeometry x="0.2821" relative="1" as="geometry">
            <mxPoint as="offset" />
          </mxGeometry>
        </mxCell>
        <mxCell id="vbtOGulgWGnL7WpAo9Rq-1" value="路线" style="swimlane;fontStyle=0;childLayout=stackLayout;horizontal=1;startSize=30;horizontalStack=0;resizeParent=1;resizeParentMax=0;resizeLast=0;collapsible=1;marginBottom=0;whiteSpace=wrap;html=1;" vertex="1" parent="1">
          <mxGeometry x="37" y="151" width="140" height="98" as="geometry">
            <mxRectangle x="37" y="151" width="59" height="30" as="alternateBounds" />
          </mxGeometry>
        </mxCell>
        <mxCell id="vbtOGulgWGnL7WpAo9Rq-8" value="" style="endArrow=none;html=1;rounded=0;exitX=0.5;exitY=0;exitDx=0;exitDy=0;entryX=1;entryY=0.5;entryDx=0;entryDy=0;" edge="1" parent="vbtOGulgWGnL7WpAo9Rq-1" source="vbtOGulgWGnL7WpAo9Rq-1">
          <mxGeometry width="50" height="50" relative="1" as="geometry">
            <mxPoint x="240" y="-51" as="sourcePoint" />
            <mxPoint x="140" y="75" as="targetPoint" />
            <Array as="points">
              <mxPoint x="70" y="-92" />
              <mxPoint x="278" y="-95" />
              <mxPoint x="278" y="75" />
            </Array>
          </mxGeometry>
        </mxCell>
        <mxCell id="vbtOGulgWGnL7WpAo9Rq-9" value="+老路线" style="edgeLabel;html=1;align=center;verticalAlign=middle;resizable=0;points=[];" vertex="1" connectable="0" parent="vbtOGulgWGnL7WpAo9Rq-8">
          <mxGeometry x="-0.8882" y="-1" relative="1" as="geometry">
            <mxPoint x="-24" y="-17" as="offset" />
          </mxGeometry>
        </mxCell>
        <mxCell id="vbtOGulgWGnL7WpAo9Rq-2" value="代码&lt;div&gt;名称：字符串&lt;/div&gt;&lt;div&gt;天数：整数&lt;/div&gt;" style="text;strokeColor=none;fillColor=none;align=left;verticalAlign=middle;spacingLeft=4;spacingRight=4;overflow=hidden;points=[[0,0.5],[1,0.5]];portConstraint=eastwest;rotatable=0;whiteSpace=wrap;html=1;" vertex="1" parent="vbtOGulgWGnL7WpAo9Rq-1">
          <mxGeometry y="30" width="140" height="68" as="geometry" />
        </mxCell>
        <mxCell id="vbtOGulgWGnL7WpAo9Rq-11" value="0...*" style="text;html=1;align=center;verticalAlign=middle;resizable=0;points=[];autosize=1;strokeColor=none;fillColor=none;" vertex="1" parent="1">
          <mxGeometry x="70" y="122" width="39" height="26" as="geometry" />
        </mxCell>
        <mxCell id="vbtOGulgWGnL7WpAo9Rq-32" value="+新路线" style="edgeLabel;html=1;align=center;verticalAlign=middle;resizable=0;points=[];" vertex="1" connectable="0" parent="1">
          <mxGeometry x="55" y="102" as="geometry">
            <mxPoint x="151" y="112" as="offset" />
          </mxGeometry>
        </mxCell>
        <mxCell id="vbtOGulgWGnL7WpAo9Rq-33" value="0...*" style="text;html=1;align=center;verticalAlign=middle;resizable=0;points=[];autosize=1;strokeColor=none;fillColor=none;" vertex="1" parent="1">
          <mxGeometry x="187" y="223" width="39" height="26" as="geometry" />
        </mxCell>
        <mxCell id="vbtOGulgWGnL7WpAo9Rq-46" value="旅行团" style="swimlane;fontStyle=0;childLayout=stackLayout;horizontal=1;startSize=26;horizontalStack=0;resizeParent=1;resizeParentMax=0;resizeLast=0;collapsible=1;marginBottom=0;align=center;fontSize=14;" vertex="1" parent="1">
          <mxGeometry x="31" y="336" width="160" height="137" as="geometry" />
        </mxCell>
        <mxCell id="vbtOGulgWGnL7WpAo9Rq-50" value="出发日期：日期&lt;div&gt;截止日期：日期&lt;/div&gt;&lt;div&gt;可申请人数：整数&lt;/div&gt;&lt;div&gt;大人价格：费用&lt;/div&gt;&lt;div&gt;小孩价格：费用&lt;/div&gt;" style="text;strokeColor=none;fillColor=none;spacingLeft=4;spacingRight=4;overflow=hidden;rotatable=0;points=[[0,0.5],[1,0.5]];portConstraint=eastwest;fontSize=12;whiteSpace=wrap;html=1;" vertex="1" parent="vbtOGulgWGnL7WpAo9Rq-46">
          <mxGeometry y="26" width="160" height="82" as="geometry" />
        </mxCell>
        <mxCell id="vbtOGulgWGnL7WpAo9Rq-47" value="//设置路线信息（）" style="text;strokeColor=none;fillColor=none;spacingLeft=4;spacingRight=4;overflow=hidden;rotatable=0;points=[[0,0.5],[1,0.5]];portConstraint=eastwest;fontSize=12;whiteSpace=wrap;html=1;" vertex="1" parent="vbtOGulgWGnL7WpAo9Rq-46">
          <mxGeometry y="108" width="160" height="29" as="geometry" />
        </mxCell>
        <mxCell id="vbtOGulgWGnL7WpAo9Rq-54" value="支付明细" style="swimlane;fontStyle=0;childLayout=stackLayout;horizontal=1;startSize=26;horizontalStack=0;resizeParent=1;resizeParentMax=0;resizeLast=0;collapsible=1;marginBottom=0;align=center;fontSize=14;" vertex="1" parent="1">
          <mxGeometry x="397" y="137" width="160" height="136" as="geometry" />
        </mxCell>
        <mxCell id="vbtOGulgWGnL7WpAo9Rq-55" value="金额：费用&lt;div&gt;截止日期：日期&lt;/div&gt;&lt;div&gt;支付日期：日期&lt;/div&gt;&lt;div&gt;支付状态&lt;/div&gt;" style="text;strokeColor=none;fillColor=none;spacingLeft=4;spacingRight=4;overflow=hidden;rotatable=0;points=[[0,0.5],[1,0.5]];portConstraint=eastwest;fontSize=12;whiteSpace=wrap;html=1;" vertex="1" parent="vbtOGulgWGnL7WpAo9Rq-54">
          <mxGeometry y="26" width="160" height="72" as="geometry" />
        </mxCell>
        <mxCell id="vbtOGulgWGnL7WpAo9Rq-56" value="//生成支付信息（）&lt;div&gt;//更新支付信息（）&lt;/div&gt;" style="text;strokeColor=none;fillColor=none;spacingLeft=4;spacingRight=4;overflow=hidden;rotatable=0;points=[[0,0.5],[1,0.5]];portConstraint=eastwest;fontSize=12;whiteSpace=wrap;html=1;" vertex="1" parent="vbtOGulgWGnL7WpAo9Rq-54">
          <mxGeometry y="98" width="160" height="38" as="geometry" />
        </mxCell>
        <mxCell id="vbtOGulgWGnL7WpAo9Rq-58" value="申请" style="swimlane;fontStyle=0;childLayout=stackLayout;horizontal=1;startSize=26;horizontalStack=0;resizeParent=1;resizeParentMax=0;resizeLast=0;collapsible=1;marginBottom=0;align=center;fontSize=14;" vertex="1" parent="1">
          <mxGeometry x="397" y="383" width="160" height="196" as="geometry" />
        </mxCell>
        <mxCell id="vbtOGulgWGnL7WpAo9Rq-62" value="申请编号&lt;div&gt;大人人数：整数&lt;/div&gt;&lt;div&gt;小孩人数：整数&lt;/div&gt;&lt;div&gt;申请状态&lt;/div&gt;&lt;div&gt;申请日期：日期&lt;/div&gt;" style="text;strokeColor=none;fillColor=none;spacingLeft=4;spacingRight=4;overflow=hidden;rotatable=0;points=[[0,0.5],[1,0.5]];portConstraint=eastwest;fontSize=12;whiteSpace=wrap;html=1;" vertex="1" parent="vbtOGulgWGnL7WpAo9Rq-58">
          <mxGeometry y="26" width="160" height="85" as="geometry" />
        </mxCell>
        <mxCell id="vbtOGulgWGnL7WpAo9Rq-59" value="//设置申请旅游团（）&lt;div&gt;//设置申请责任人（）&lt;/div&gt;&lt;div&gt;//计算支付信息（）&lt;/div&gt;&lt;div&gt;//计算费用和定金（）&lt;/div&gt;&lt;div&gt;//更新申请信息（）&lt;/div&gt;" style="text;strokeColor=none;fillColor=none;spacingLeft=4;spacingRight=4;overflow=hidden;rotatable=0;points=[[0,0.5],[1,0.5]];portConstraint=eastwest;fontSize=12;whiteSpace=wrap;html=1;" vertex="1" parent="vbtOGulgWGnL7WpAo9Rq-58">
          <mxGeometry y="111" width="160" height="85" as="geometry" />
        </mxCell>
        <mxCell id="vbtOGulgWGnL7WpAo9Rq-69" value="" style="endArrow=none;html=1;rounded=0;exitX=1;exitY=0.5;exitDx=0;exitDy=0;entryX=0;entryY=0.5;entryDx=0;entryDy=0;edgeStyle=orthogonalEdgeStyle;" edge="1" parent="1" source="vbtOGulgWGnL7WpAo9Rq-50" target="vbtOGulgWGnL7WpAo9Rq-62">
          <mxGeometry width="50" height="50" relative="1" as="geometry">
            <mxPoint x="378" y="444" as="sourcePoint" />
            <mxPoint x="428" y="394" as="targetPoint" />
          </mxGeometry>
        </mxCell>
        <mxCell id="vbtOGulgWGnL7WpAo9Rq-70" value="1" style="edgeLabel;html=1;align=center;verticalAlign=middle;resizable=0;points=[];" vertex="1" connectable="0" parent="vbtOGulgWGnL7WpAo9Rq-69">
          <mxGeometry x="-0.7877" y="-3" relative="1" as="geometry">
            <mxPoint as="offset" />
          </mxGeometry>
        </mxCell>
        <mxCell id="vbtOGulgWGnL7WpAo9Rq-71" value="0...*" style="edgeLabel;html=1;align=center;verticalAlign=middle;resizable=0;points=[];" vertex="1" connectable="0" parent="vbtOGulgWGnL7WpAo9Rq-69">
          <mxGeometry x="0.7015" y="-3" relative="1" as="geometry">
            <mxPoint as="offset" />
          </mxGeometry>
        </mxCell>
        <mxCell id="vbtOGulgWGnL7WpAo9Rq-72" value="" style="endArrow=diamondThin;endFill=0;endSize=24;html=1;rounded=0;entryX=0.5;entryY=0;entryDx=0;entryDy=0;entryPerimeter=0;" edge="1" parent="1" source="vbtOGulgWGnL7WpAo9Rq-56" target="vbtOGulgWGnL7WpAo9Rq-58">
          <mxGeometry width="160" relative="1" as="geometry">
            <mxPoint x="323" y="419" as="sourcePoint" />
            <mxPoint x="483" y="419" as="targetPoint" />
          </mxGeometry>
        </mxCell>
        <mxCell id="vbtOGulgWGnL7WpAo9Rq-73" value="1" style="edgeLabel;html=1;align=center;verticalAlign=middle;resizable=0;points=[];" vertex="1" connectable="0" parent="vbtOGulgWGnL7WpAo9Rq-72">
          <mxGeometry x="0.703" y="9" relative="1" as="geometry">
            <mxPoint x="5" as="offset" />
          </mxGeometry>
        </mxCell>
        <mxCell id="vbtOGulgWGnL7WpAo9Rq-74" value="0...*" style="edgeLabel;html=1;align=center;verticalAlign=middle;resizable=0;points=[];" vertex="1" connectable="0" parent="1">
          <mxGeometry x="377" y="465" as="geometry">
            <mxPoint x="105" y="-179" as="offset" />
          </mxGeometry>
        </mxCell>
        <mxCell id="vbtOGulgWGnL7WpAo9Rq-75" value="联系人" style="swimlane;fontStyle=0;childLayout=stackLayout;horizontal=1;startSize=26;horizontalStack=0;resizeParent=1;resizeParentMax=0;resizeLast=0;collapsible=1;marginBottom=0;align=center;fontSize=14;" vertex="1" parent="1">
          <mxGeometry x="660" y="137" width="160" height="85" as="geometry" />
        </mxCell>
        <mxCell id="vbtOGulgWGnL7WpAo9Rq-76" value="姓名&lt;div&gt;电话&lt;/div&gt;&lt;div&gt;地址&lt;/div&gt;" style="text;strokeColor=none;fillColor=none;spacingLeft=4;spacingRight=4;overflow=hidden;rotatable=0;points=[[0,0.5],[1,0.5]];portConstraint=eastwest;fontSize=12;whiteSpace=wrap;html=1;" vertex="1" parent="vbtOGulgWGnL7WpAo9Rq-75">
          <mxGeometry y="26" width="160" height="59" as="geometry" />
        </mxCell>
        <mxCell id="vbtOGulgWGnL7WpAo9Rq-79" value="参加人" style="swimlane;fontStyle=0;childLayout=stackLayout;horizontal=1;startSize=26;horizontalStack=0;resizeParent=1;resizeParentMax=0;resizeLast=0;collapsible=1;marginBottom=0;align=center;fontSize=14;" vertex="1" parent="1">
          <mxGeometry x="665" y="391" width="160" height="144" as="geometry" />
        </mxCell>
        <mxCell id="vbtOGulgWGnL7WpAo9Rq-80" value="姓名：字符串&lt;div&gt;性别&lt;/div&gt;&lt;div&gt;出生日期：日期&lt;/div&gt;&lt;div&gt;电话号码：字符串&lt;/div&gt;&lt;div&gt;联系地址：字符串&lt;/div&gt;&lt;div&gt;邮政编号：字符串&lt;/div&gt;&lt;div&gt;email：字符串&lt;/div&gt;" style="text;strokeColor=none;fillColor=none;spacingLeft=4;spacingRight=4;overflow=hidden;rotatable=0;points=[[0,0.5],[1,0.5]];portConstraint=eastwest;fontSize=12;whiteSpace=wrap;html=1;" vertex="1" parent="vbtOGulgWGnL7WpAo9Rq-79">
          <mxGeometry y="26" width="160" height="118" as="geometry" />
        </mxCell>
        <mxCell id="vbtOGulgWGnL7WpAo9Rq-82" value="" style="endArrow=none;html=1;rounded=0;exitX=1;exitY=0.5;exitDx=0;exitDy=0;entryX=-0.019;entryY=0.305;entryDx=0;entryDy=0;entryPerimeter=0;" edge="1" parent="1" source="vbtOGulgWGnL7WpAo9Rq-62" target="vbtOGulgWGnL7WpAo9Rq-80">
          <mxGeometry width="50" height="50" relative="1" as="geometry">
            <mxPoint x="586" y="496" as="sourcePoint" />
            <mxPoint x="624" y="464" as="targetPoint" />
          </mxGeometry>
        </mxCell>
        <mxCell id="vbtOGulgWGnL7WpAo9Rq-83" value="+其他参加人" style="text;html=1;align=center;verticalAlign=middle;resizable=0;points=[];autosize=1;strokeColor=none;fillColor=none;" vertex="1" parent="1">
          <mxGeometry x="552" y="432" width="85" height="26" as="geometry" />
        </mxCell>
        <mxCell id="vbtOGulgWGnL7WpAo9Rq-84" value="0...*" style="text;html=1;align=center;verticalAlign=middle;resizable=0;points=[];autosize=1;strokeColor=none;fillColor=none;" vertex="1" parent="1">
          <mxGeometry x="630" y="453" width="39" height="26" as="geometry" />
        </mxCell>
        <mxCell id="vbtOGulgWGnL7WpAo9Rq-85" value="" style="endArrow=none;html=1;rounded=0;exitX=1;exitY=0.5;exitDx=0;exitDy=0;entryX=-0.012;entryY=0.774;entryDx=0;entryDy=0;entryPerimeter=0;" edge="1" parent="1" source="vbtOGulgWGnL7WpAo9Rq-59" target="vbtOGulgWGnL7WpAo9Rq-80">
          <mxGeometry width="50" height="50" relative="1" as="geometry">
            <mxPoint x="612" y="633" as="sourcePoint" />
            <mxPoint x="662" y="583" as="targetPoint" />
          </mxGeometry>
        </mxCell>
        <mxCell id="vbtOGulgWGnL7WpAo9Rq-86" value="+责任人" style="edgeLabel;html=1;align=center;verticalAlign=middle;resizable=0;points=[];" vertex="1" connectable="0" parent="vbtOGulgWGnL7WpAo9Rq-85">
          <mxGeometry x="-0.6614" y="1" relative="1" as="geometry">
            <mxPoint x="4" y="-9" as="offset" />
          </mxGeometry>
        </mxCell>
        <mxCell id="vbtOGulgWGnL7WpAo9Rq-87" value="1" style="text;html=1;align=center;verticalAlign=middle;resizable=0;points=[];autosize=1;strokeColor=none;fillColor=none;" vertex="1" parent="1">
          <mxGeometry x="635" y="512" width="25" height="26" as="geometry" />
        </mxCell>
        <mxCell id="vbtOGulgWGnL7WpAo9Rq-88" value="" style="endArrow=diamondThin;endFill=0;endSize=24;html=1;rounded=0;entryX=0.508;entryY=1.006;entryDx=0;entryDy=0;entryPerimeter=0;exitX=0.5;exitY=0;exitDx=0;exitDy=0;edgeStyle=orthogonalEdgeStyle;" edge="1" parent="1" source="vbtOGulgWGnL7WpAo9Rq-89" target="vbtOGulgWGnL7WpAo9Rq-80">
          <mxGeometry width="160" relative="1" as="geometry">
            <mxPoint x="739.7" y="592.3299999999999" as="sourcePoint" />
            <mxPoint x="781" y="634" as="targetPoint" />
          </mxGeometry>
        </mxCell>
        <mxCell id="vbtOGulgWGnL7WpAo9Rq-89" value="大人" style="swimlane;fontStyle=0;childLayout=stackLayout;horizontal=1;startSize=23;horizontalStack=0;resizeParent=1;resizeParentMax=0;resizeLast=0;collapsible=1;marginBottom=0;align=center;fontSize=14;" vertex="1" parent="1">
          <mxGeometry x="633" y="642" width="71" height="27" as="geometry">
            <mxRectangle x="527" y="637" width="63" height="29" as="alternateBounds" />
          </mxGeometry>
        </mxCell>
        <mxCell id="vbtOGulgWGnL7WpAo9Rq-91" value="小孩" style="swimlane;fontStyle=0;childLayout=stackLayout;horizontal=1;startSize=24;horizontalStack=0;resizeParent=1;resizeParentMax=0;resizeLast=0;collapsible=1;marginBottom=0;align=center;fontSize=14;" vertex="1" parent="1">
          <mxGeometry x="801" y="642" width="71" height="29" as="geometry" />
        </mxCell>
        <mxCell id="vbtOGulgWGnL7WpAo9Rq-97" value="" style="endArrow=none;html=1;rounded=0;entryX=0.531;entryY=1.04;entryDx=0;entryDy=0;entryPerimeter=0;exitX=0.5;exitY=0;exitDx=0;exitDy=0;" edge="1" parent="1" source="vbtOGulgWGnL7WpAo9Rq-79" target="vbtOGulgWGnL7WpAo9Rq-76">
          <mxGeometry width="50" height="50" relative="1" as="geometry">
            <mxPoint x="690" y="294" as="sourcePoint" />
            <mxPoint x="740" y="244" as="targetPoint" />
          </mxGeometry>
        </mxCell>
        <mxCell id="vbtOGulgWGnL7WpAo9Rq-98" value="1" style="text;html=1;align=center;verticalAlign=middle;resizable=0;points=[];autosize=1;strokeColor=none;fillColor=none;" vertex="1" parent="1">
          <mxGeometry x="742" y="231" width="25" height="26" as="geometry" />
        </mxCell>
        <mxCell id="vbtOGulgWGnL7WpAo9Rq-99" value="0..*" style="text;html=1;align=center;verticalAlign=middle;resizable=0;points=[];autosize=1;strokeColor=none;fillColor=none;" vertex="1" parent="1">
          <mxGeometry x="742" y="361" width="36" height="26" as="geometry" />
        </mxCell>
        <mxCell id="vbtOGulgWGnL7WpAo9Rq-100" value="" style="endArrow=diamondThin;endFill=0;endSize=24;html=1;rounded=0;exitX=0.5;exitY=0;exitDx=0;exitDy=0;edgeStyle=orthogonalEdgeStyle;" edge="1" parent="1" source="vbtOGulgWGnL7WpAo9Rq-91">
          <mxGeometry width="160" relative="1" as="geometry">
            <mxPoint x="845.5" y="638.5" as="sourcePoint" />
            <mxPoint x="746" y="537.5" as="targetPoint" />
            <Array as="points">
              <mxPoint x="836" y="635" />
              <mxPoint x="836" y="589" />
              <mxPoint x="746" y="589" />
            </Array>
          </mxGeometry>
        </mxCell>
      </root>
    </mxGraphModel>
  </diagram>
  <diagram id="wL_6spOtLXtPIPBq1DsJ" name="第 5 页">
    <mxGraphModel dx="1477" dy="700" grid="0" gridSize="10" guides="1" tooltips="1" connect="1" arrows="1" fold="1" page="1" pageScale="1" pageWidth="827" pageHeight="1169" math="0" shadow="0">
      <root>
        <mxCell id="0" />
        <mxCell id="1" parent="0" />
      </root>
    </mxGraphModel>
  </diagram>
  <diagram id="WsS8kwN1PodScm4wfWkx" name="第 6 页">
    <mxGraphModel dx="2374" dy="1493" grid="0" gridSize="10" guides="1" tooltips="1" connect="1" arrows="1" fold="1" page="1" pageScale="1" pageWidth="1169" pageHeight="827" math="0" shadow="0">
      <root>
        <mxCell id="0" />
        <mxCell id="1" parent="0" />
        <mxCell id="BHAyMhJsC8VI4GUx0SZw-6" value="&lt;u&gt;姓名&lt;/u&gt;" style="ellipse;whiteSpace=wrap;html=1;" parent="1" vertex="1">
          <mxGeometry x="31" y="-41" width="98" height="61" as="geometry" />
        </mxCell>
        <mxCell id="BHAyMhJsC8VI4GUx0SZw-7" value="学号" style="ellipse;whiteSpace=wrap;html=1;" parent="1" vertex="1">
          <mxGeometry x="159" y="-41" width="98" height="61" as="geometry" />
        </mxCell>
        <mxCell id="BHAyMhJsC8VI4GUx0SZw-8" value="成绩" style="ellipse;whiteSpace=wrap;html=1;" parent="1" vertex="1">
          <mxGeometry x="316" y="-41" width="98" height="61" as="geometry" />
        </mxCell>
        <mxCell id="BHAyMhJsC8VI4GUx0SZw-9" value="姓名" style="ellipse;whiteSpace=wrap;html=1;" parent="1" vertex="1">
          <mxGeometry x="470" y="-44" width="98" height="61" as="geometry" />
        </mxCell>
        <mxCell id="BHAyMhJsC8VI4GUx0SZw-10" value="课程名" style="ellipse;whiteSpace=wrap;html=1;" parent="1" vertex="1">
          <mxGeometry x="594" y="-44" width="98" height="61" as="geometry" />
        </mxCell>
        <mxCell id="zbtpmyKSqZWRyj-pE0QG-1" value="隶属" style="rhombus;whiteSpace=wrap;html=1;" vertex="1" parent="1">
          <mxGeometry x="40" y="764" width="119" height="59" as="geometry" />
        </mxCell>
        <mxCell id="zbtpmyKSqZWRyj-pE0QG-2" value="学生" style="rounded=0;whiteSpace=wrap;html=1;" vertex="1" parent="1">
          <mxGeometry x="343" y="769" width="86" height="49" as="geometry" />
        </mxCell>
        <mxCell id="zbtpmyKSqZWRyj-pE0QG-3" value="选课" style="rhombus;whiteSpace=wrap;html=1;" vertex="1" parent="1">
          <mxGeometry x="618.5" y="764" width="119" height="59" as="geometry" />
        </mxCell>
        <mxCell id="zbtpmyKSqZWRyj-pE0QG-4" value="教学计划" style="rhombus;whiteSpace=wrap;html=1;" vertex="1" parent="1">
          <mxGeometry x="336" y="626" width="119" height="59" as="geometry" />
        </mxCell>
        <mxCell id="zbtpmyKSqZWRyj-pE0QG-5" value="课程安排" style="rhombus;whiteSpace=wrap;html=1;" vertex="1" parent="1">
          <mxGeometry x="332" y="511" width="119" height="59" as="geometry" />
        </mxCell>
        <mxCell id="zbtpmyKSqZWRyj-pE0QG-6" value="教师" style="rounded=0;whiteSpace=wrap;html=1;" vertex="1" parent="1">
          <mxGeometry x="350" y="385" width="86" height="49" as="geometry" />
        </mxCell>
        <mxCell id="zbtpmyKSqZWRyj-pE0QG-7" value="隶属" style="rhombus;whiteSpace=wrap;html=1;" vertex="1" parent="1">
          <mxGeometry x="183" y="380" width="119" height="59" as="geometry" />
        </mxCell>
        <mxCell id="zbtpmyKSqZWRyj-pE0QG-8" value="系部" style="rounded=0;whiteSpace=wrap;html=1;" vertex="1" parent="1">
          <mxGeometry x="55" y="385" width="86" height="49" as="geometry" />
        </mxCell>
        <mxCell id="zbtpmyKSqZWRyj-pE0QG-9" value="隶属" style="rhombus;whiteSpace=wrap;html=1;" vertex="1" parent="1">
          <mxGeometry x="38.5" y="511" width="119" height="59" as="geometry" />
        </mxCell>
        <mxCell id="zbtpmyKSqZWRyj-pE0QG-10" value="班级" style="rounded=0;whiteSpace=wrap;html=1;" vertex="1" parent="1">
          <mxGeometry x="55" y="631" width="86" height="49" as="geometry" />
        </mxCell>
        <mxCell id="zbtpmyKSqZWRyj-pE0QG-11" value="教材" style="rounded=0;whiteSpace=wrap;html=1;" vertex="1" parent="1">
          <mxGeometry x="633" y="385" width="86" height="49" as="geometry" />
        </mxCell>
        <mxCell id="zbtpmyKSqZWRyj-pE0QG-12" value="使用" style="rhombus;whiteSpace=wrap;html=1;" vertex="1" parent="1">
          <mxGeometry x="618.5" y="511" width="119" height="59" as="geometry" />
        </mxCell>
        <mxCell id="zbtpmyKSqZWRyj-pE0QG-13" value="课程" style="rounded=0;whiteSpace=wrap;html=1;" vertex="1" parent="1">
          <mxGeometry x="635" y="631" width="86" height="49" as="geometry" />
        </mxCell>
        <mxCell id="zbtpmyKSqZWRyj-pE0QG-15" value="" style="endArrow=none;html=1;rounded=0;entryX=0;entryY=0.5;entryDx=0;entryDy=0;exitX=1;exitY=0.5;exitDx=0;exitDy=0;" edge="1" parent="1" source="zbtpmyKSqZWRyj-pE0QG-8" target="zbtpmyKSqZWRyj-pE0QG-7">
          <mxGeometry width="50" height="50" relative="1" as="geometry">
            <mxPoint x="129" y="570" as="sourcePoint" />
            <mxPoint x="179" y="520" as="targetPoint" />
          </mxGeometry>
        </mxCell>
        <mxCell id="zbtpmyKSqZWRyj-pE0QG-34" value="1" style="edgeLabel;html=1;align=center;verticalAlign=middle;resizable=0;points=[];" vertex="1" connectable="0" parent="zbtpmyKSqZWRyj-pE0QG-15">
          <mxGeometry x="-0.3333" y="2" relative="1" as="geometry">
            <mxPoint x="-6" y="-6" as="offset" />
          </mxGeometry>
        </mxCell>
        <mxCell id="zbtpmyKSqZWRyj-pE0QG-19" value="" style="endArrow=none;html=1;rounded=0;entryX=1;entryY=0.5;entryDx=0;entryDy=0;exitX=0;exitY=0.5;exitDx=0;exitDy=0;" edge="1" parent="1" source="zbtpmyKSqZWRyj-pE0QG-6" target="zbtpmyKSqZWRyj-pE0QG-7">
          <mxGeometry width="50" height="50" relative="1" as="geometry">
            <mxPoint x="240" y="630" as="sourcePoint" />
            <mxPoint x="290" y="580" as="targetPoint" />
          </mxGeometry>
        </mxCell>
        <mxCell id="zbtpmyKSqZWRyj-pE0QG-20" value="" style="endArrow=none;html=1;rounded=0;entryX=0;entryY=0.5;entryDx=0;entryDy=0;exitX=1;exitY=0.5;exitDx=0;exitDy=0;" edge="1" parent="1" source="zbtpmyKSqZWRyj-pE0QG-2" target="zbtpmyKSqZWRyj-pE0QG-3">
          <mxGeometry width="50" height="50" relative="1" as="geometry">
            <mxPoint x="494" y="895" as="sourcePoint" />
            <mxPoint x="544" y="845" as="targetPoint" />
          </mxGeometry>
        </mxCell>
        <mxCell id="zbtpmyKSqZWRyj-pE0QG-41" value="m" style="edgeLabel;html=1;align=center;verticalAlign=middle;resizable=0;points=[];" vertex="1" connectable="0" parent="zbtpmyKSqZWRyj-pE0QG-20">
          <mxGeometry x="-0.314" y="1" relative="1" as="geometry">
            <mxPoint as="offset" />
          </mxGeometry>
        </mxCell>
        <mxCell id="zbtpmyKSqZWRyj-pE0QG-21" value="" style="endArrow=none;html=1;rounded=0;entryX=0.5;entryY=1;entryDx=0;entryDy=0;exitX=0.5;exitY=0;exitDx=0;exitDy=0;" edge="1" parent="1" source="zbtpmyKSqZWRyj-pE0QG-3" target="zbtpmyKSqZWRyj-pE0QG-13">
          <mxGeometry width="50" height="50" relative="1" as="geometry">
            <mxPoint x="565" y="828" as="sourcePoint" />
            <mxPoint x="615" y="778" as="targetPoint" />
          </mxGeometry>
        </mxCell>
        <mxCell id="zbtpmyKSqZWRyj-pE0QG-44" value="n" style="edgeLabel;html=1;align=center;verticalAlign=middle;resizable=0;points=[];" vertex="1" connectable="0" parent="zbtpmyKSqZWRyj-pE0QG-21">
          <mxGeometry x="-0.1984" y="-2" relative="1" as="geometry">
            <mxPoint as="offset" />
          </mxGeometry>
        </mxCell>
        <mxCell id="zbtpmyKSqZWRyj-pE0QG-22" value="" style="endArrow=none;html=1;rounded=0;entryX=0.5;entryY=1;entryDx=0;entryDy=0;exitX=0.5;exitY=0;exitDx=0;exitDy=0;" edge="1" parent="1" source="zbtpmyKSqZWRyj-pE0QG-13" target="zbtpmyKSqZWRyj-pE0QG-12">
          <mxGeometry width="50" height="50" relative="1" as="geometry">
            <mxPoint x="518" y="703" as="sourcePoint" />
            <mxPoint x="568" y="653" as="targetPoint" />
          </mxGeometry>
        </mxCell>
        <mxCell id="zbtpmyKSqZWRyj-pE0QG-45" value="1" style="edgeLabel;html=1;align=center;verticalAlign=middle;resizable=0;points=[];" vertex="1" connectable="0" parent="zbtpmyKSqZWRyj-pE0QG-22">
          <mxGeometry x="0.3989" y="-2" relative="1" as="geometry">
            <mxPoint as="offset" />
          </mxGeometry>
        </mxCell>
        <mxCell id="zbtpmyKSqZWRyj-pE0QG-23" value="" style="endArrow=none;html=1;rounded=0;entryX=0.5;entryY=1;entryDx=0;entryDy=0;exitX=0.5;exitY=0;exitDx=0;exitDy=0;" edge="1" parent="1" source="zbtpmyKSqZWRyj-pE0QG-12" target="zbtpmyKSqZWRyj-pE0QG-11">
          <mxGeometry width="50" height="50" relative="1" as="geometry">
            <mxPoint x="568.5" y="612" as="sourcePoint" />
            <mxPoint x="618.5" y="562" as="targetPoint" />
          </mxGeometry>
        </mxCell>
        <mxCell id="zbtpmyKSqZWRyj-pE0QG-46" value="1" style="edgeLabel;html=1;align=center;verticalAlign=middle;resizable=0;points=[];" vertex="1" connectable="0" parent="zbtpmyKSqZWRyj-pE0QG-23">
          <mxGeometry x="0.3165" y="1" relative="1" as="geometry">
            <mxPoint as="offset" />
          </mxGeometry>
        </mxCell>
        <mxCell id="zbtpmyKSqZWRyj-pE0QG-24" value="" style="endArrow=none;html=1;rounded=0;entryX=0.5;entryY=1;entryDx=0;entryDy=0;exitX=0.5;exitY=0;exitDx=0;exitDy=0;" edge="1" parent="1" source="zbtpmyKSqZWRyj-pE0QG-5" target="zbtpmyKSqZWRyj-pE0QG-6">
          <mxGeometry width="50" height="50" relative="1" as="geometry">
            <mxPoint x="389" y="716" as="sourcePoint" />
            <mxPoint x="439" y="666" as="targetPoint" />
          </mxGeometry>
        </mxCell>
        <mxCell id="zbtpmyKSqZWRyj-pE0QG-85" value="k" style="edgeLabel;html=1;align=center;verticalAlign=middle;resizable=0;points=[];" vertex="1" connectable="0" parent="zbtpmyKSqZWRyj-pE0QG-24">
          <mxGeometry x="0.0811" y="2" relative="1" as="geometry">
            <mxPoint as="offset" />
          </mxGeometry>
        </mxCell>
        <mxCell id="zbtpmyKSqZWRyj-pE0QG-25" value="" style="endArrow=none;html=1;rounded=0;entryX=0;entryY=0.5;entryDx=0;entryDy=0;exitX=1;exitY=0.5;exitDx=0;exitDy=0;" edge="1" parent="1" source="zbtpmyKSqZWRyj-pE0QG-10" target="zbtpmyKSqZWRyj-pE0QG-5">
          <mxGeometry width="50" height="50" relative="1" as="geometry">
            <mxPoint x="199" y="826" as="sourcePoint" />
            <mxPoint x="249" y="776" as="targetPoint" />
          </mxGeometry>
        </mxCell>
        <mxCell id="zbtpmyKSqZWRyj-pE0QG-37" value="n" style="edgeLabel;html=1;align=center;verticalAlign=middle;resizable=0;points=[];" vertex="1" connectable="0" parent="zbtpmyKSqZWRyj-pE0QG-25">
          <mxGeometry x="-0.0392" y="3" relative="1" as="geometry">
            <mxPoint as="offset" />
          </mxGeometry>
        </mxCell>
        <mxCell id="zbtpmyKSqZWRyj-pE0QG-26" value="" style="endArrow=none;html=1;rounded=0;entryX=0;entryY=0.5;entryDx=0;entryDy=0;exitX=1;exitY=0.5;exitDx=0;exitDy=0;" edge="1" parent="1" source="zbtpmyKSqZWRyj-pE0QG-5" target="zbtpmyKSqZWRyj-pE0QG-13">
          <mxGeometry width="50" height="50" relative="1" as="geometry">
            <mxPoint x="515" y="810" as="sourcePoint" />
            <mxPoint x="565" y="760" as="targetPoint" />
          </mxGeometry>
        </mxCell>
        <mxCell id="zbtpmyKSqZWRyj-pE0QG-43" value="m" style="edgeLabel;html=1;align=center;verticalAlign=middle;resizable=0;points=[];" vertex="1" connectable="0" parent="zbtpmyKSqZWRyj-pE0QG-26">
          <mxGeometry x="-0.1254" y="3" relative="1" as="geometry">
            <mxPoint as="offset" />
          </mxGeometry>
        </mxCell>
        <mxCell id="zbtpmyKSqZWRyj-pE0QG-27" value="" style="endArrow=none;html=1;rounded=0;entryX=0;entryY=0.5;entryDx=0;entryDy=0;exitX=1;exitY=0.5;exitDx=0;exitDy=0;" edge="1" parent="1" source="zbtpmyKSqZWRyj-pE0QG-4" target="zbtpmyKSqZWRyj-pE0QG-13">
          <mxGeometry width="50" height="50" relative="1" as="geometry">
            <mxPoint x="389" y="916" as="sourcePoint" />
            <mxPoint x="439" y="866" as="targetPoint" />
          </mxGeometry>
        </mxCell>
        <mxCell id="zbtpmyKSqZWRyj-pE0QG-42" value="m" style="edgeLabel;html=1;align=center;verticalAlign=middle;resizable=0;points=[];" vertex="1" connectable="0" parent="zbtpmyKSqZWRyj-pE0QG-27">
          <mxGeometry x="-0.1111" y="3" relative="1" as="geometry">
            <mxPoint as="offset" />
          </mxGeometry>
        </mxCell>
        <mxCell id="zbtpmyKSqZWRyj-pE0QG-28" value="" style="endArrow=none;html=1;rounded=0;entryX=0.5;entryY=1;entryDx=0;entryDy=0;exitX=0.5;exitY=0;exitDx=0;exitDy=0;" edge="1" parent="1" source="zbtpmyKSqZWRyj-pE0QG-10" target="zbtpmyKSqZWRyj-pE0QG-9">
          <mxGeometry width="50" height="50" relative="1" as="geometry">
            <mxPoint x="153" y="987" as="sourcePoint" />
            <mxPoint x="203" y="937" as="targetPoint" />
          </mxGeometry>
        </mxCell>
        <mxCell id="zbtpmyKSqZWRyj-pE0QG-36" value="n" style="edgeLabel;html=1;align=center;verticalAlign=middle;resizable=0;points=[];" vertex="1" connectable="0" parent="zbtpmyKSqZWRyj-pE0QG-28">
          <mxGeometry x="0.0383" relative="1" as="geometry">
            <mxPoint as="offset" />
          </mxGeometry>
        </mxCell>
        <mxCell id="zbtpmyKSqZWRyj-pE0QG-29" value="" style="endArrow=none;html=1;rounded=0;entryX=0.5;entryY=1;entryDx=0;entryDy=0;exitX=0.5;exitY=0;exitDx=0;exitDy=0;" edge="1" parent="1" source="zbtpmyKSqZWRyj-pE0QG-1" target="zbtpmyKSqZWRyj-pE0QG-10">
          <mxGeometry width="50" height="50" relative="1" as="geometry">
            <mxPoint x="162" y="985" as="sourcePoint" />
            <mxPoint x="212" y="935" as="targetPoint" />
          </mxGeometry>
        </mxCell>
        <mxCell id="zbtpmyKSqZWRyj-pE0QG-39" value="1" style="edgeLabel;html=1;align=center;verticalAlign=middle;resizable=0;points=[];" vertex="1" connectable="0" parent="zbtpmyKSqZWRyj-pE0QG-29">
          <mxGeometry x="-0.031" y="2" relative="1" as="geometry">
            <mxPoint as="offset" />
          </mxGeometry>
        </mxCell>
        <mxCell id="zbtpmyKSqZWRyj-pE0QG-30" value="" style="endArrow=none;html=1;rounded=0;entryX=0;entryY=0.5;entryDx=0;entryDy=0;exitX=1;exitY=0.5;exitDx=0;exitDy=0;" edge="1" parent="1" source="zbtpmyKSqZWRyj-pE0QG-10" target="zbtpmyKSqZWRyj-pE0QG-4">
          <mxGeometry width="50" height="50" relative="1" as="geometry">
            <mxPoint x="254" y="931" as="sourcePoint" />
            <mxPoint x="304" y="881" as="targetPoint" />
          </mxGeometry>
        </mxCell>
        <mxCell id="zbtpmyKSqZWRyj-pE0QG-38" value="n" style="edgeLabel;html=1;align=center;verticalAlign=middle;resizable=0;points=[];" vertex="1" connectable="0" parent="zbtpmyKSqZWRyj-pE0QG-30">
          <mxGeometry x="0.0462" y="2" relative="1" as="geometry">
            <mxPoint as="offset" />
          </mxGeometry>
        </mxCell>
        <mxCell id="zbtpmyKSqZWRyj-pE0QG-31" value="" style="endArrow=none;html=1;rounded=0;entryX=0;entryY=0.5;entryDx=0;entryDy=0;exitX=1;exitY=0.5;exitDx=0;exitDy=0;" edge="1" parent="1" source="zbtpmyKSqZWRyj-pE0QG-1" target="zbtpmyKSqZWRyj-pE0QG-2">
          <mxGeometry width="50" height="50" relative="1" as="geometry">
            <mxPoint x="389" y="916" as="sourcePoint" />
            <mxPoint x="439" y="866" as="targetPoint" />
          </mxGeometry>
        </mxCell>
        <mxCell id="zbtpmyKSqZWRyj-pE0QG-40" value="n" style="edgeLabel;html=1;align=center;verticalAlign=middle;resizable=0;points=[];" vertex="1" connectable="0" parent="zbtpmyKSqZWRyj-pE0QG-31">
          <mxGeometry x="-0.1522" y="-2" relative="1" as="geometry">
            <mxPoint as="offset" />
          </mxGeometry>
        </mxCell>
        <mxCell id="zbtpmyKSqZWRyj-pE0QG-33" value="" style="endArrow=none;html=1;rounded=0;entryX=0.5;entryY=1;entryDx=0;entryDy=0;exitX=0.5;exitY=0;exitDx=0;exitDy=0;" edge="1" parent="1" source="zbtpmyKSqZWRyj-pE0QG-9" target="zbtpmyKSqZWRyj-pE0QG-8">
          <mxGeometry width="50" height="50" relative="1" as="geometry">
            <mxPoint x="228" y="798" as="sourcePoint" />
            <mxPoint x="278" y="748" as="targetPoint" />
          </mxGeometry>
        </mxCell>
        <mxCell id="zbtpmyKSqZWRyj-pE0QG-35" value="1" style="edgeLabel;html=1;align=center;verticalAlign=middle;resizable=0;points=[];" vertex="1" connectable="0" parent="zbtpmyKSqZWRyj-pE0QG-33">
          <mxGeometry x="0.2381" relative="1" as="geometry">
            <mxPoint as="offset" />
          </mxGeometry>
        </mxCell>
        <mxCell id="zbtpmyKSqZWRyj-pE0QG-47" value="&lt;u&gt;学号&lt;/u&gt;" style="ellipse;whiteSpace=wrap;html=1;" vertex="1" parent="1">
          <mxGeometry x="257" y="850" width="79" height="39" as="geometry" />
        </mxCell>
        <mxCell id="zbtpmyKSqZWRyj-pE0QG-48" value="姓名" style="ellipse;whiteSpace=wrap;html=1;" vertex="1" parent="1">
          <mxGeometry x="353.5" y="850" width="79" height="39" as="geometry" />
        </mxCell>
        <mxCell id="zbtpmyKSqZWRyj-pE0QG-49" value="班级号" style="ellipse;whiteSpace=wrap;html=1;" vertex="1" parent="1">
          <mxGeometry x="444" y="848" width="79" height="39" as="geometry" />
        </mxCell>
        <mxCell id="zbtpmyKSqZWRyj-pE0QG-50" value="" style="endArrow=none;html=1;rounded=0;entryX=0.5;entryY=1;entryDx=0;entryDy=0;exitX=0.5;exitY=0;exitDx=0;exitDy=0;" edge="1" parent="1" source="zbtpmyKSqZWRyj-pE0QG-48" target="zbtpmyKSqZWRyj-pE0QG-2">
          <mxGeometry width="50" height="50" relative="1" as="geometry">
            <mxPoint x="478" y="739" as="sourcePoint" />
            <mxPoint x="528" y="689" as="targetPoint" />
          </mxGeometry>
        </mxCell>
        <mxCell id="zbtpmyKSqZWRyj-pE0QG-51" value="" style="endArrow=none;html=1;rounded=0;entryX=0.5;entryY=1;entryDx=0;entryDy=0;exitX=0.5;exitY=0;exitDx=0;exitDy=0;" edge="1" parent="1" source="zbtpmyKSqZWRyj-pE0QG-47" target="zbtpmyKSqZWRyj-pE0QG-2">
          <mxGeometry width="50" height="50" relative="1" as="geometry">
            <mxPoint x="389" y="716" as="sourcePoint" />
            <mxPoint x="439" y="666" as="targetPoint" />
          </mxGeometry>
        </mxCell>
        <mxCell id="zbtpmyKSqZWRyj-pE0QG-52" value="" style="endArrow=none;html=1;rounded=0;entryX=0.5;entryY=1;entryDx=0;entryDy=0;exitX=0.5;exitY=0;exitDx=0;exitDy=0;" edge="1" parent="1" source="zbtpmyKSqZWRyj-pE0QG-49" target="zbtpmyKSqZWRyj-pE0QG-2">
          <mxGeometry width="50" height="50" relative="1" as="geometry">
            <mxPoint x="389" y="716" as="sourcePoint" />
            <mxPoint x="439" y="666" as="targetPoint" />
          </mxGeometry>
        </mxCell>
        <mxCell id="zbtpmyKSqZWRyj-pE0QG-53" value="&lt;u&gt;编号&lt;/u&gt;" style="ellipse;whiteSpace=wrap;html=1;" vertex="1" parent="1">
          <mxGeometry x="274.5" y="284" width="79" height="39" as="geometry" />
        </mxCell>
        <mxCell id="zbtpmyKSqZWRyj-pE0QG-54" value="姓名" style="ellipse;whiteSpace=wrap;html=1;" vertex="1" parent="1">
          <mxGeometry x="356" y="284" width="79" height="39" as="geometry" />
        </mxCell>
        <mxCell id="zbtpmyKSqZWRyj-pE0QG-55" value="系号" style="ellipse;whiteSpace=wrap;html=1;" vertex="1" parent="1">
          <mxGeometry x="440" y="284" width="79" height="39" as="geometry" />
        </mxCell>
        <mxCell id="zbtpmyKSqZWRyj-pE0QG-56" value="" style="endArrow=none;html=1;rounded=0;entryX=0.5;entryY=0;entryDx=0;entryDy=0;exitX=0.5;exitY=1;exitDx=0;exitDy=0;" edge="1" parent="1" source="zbtpmyKSqZWRyj-pE0QG-53" target="zbtpmyKSqZWRyj-pE0QG-6">
          <mxGeometry width="50" height="50" relative="1" as="geometry">
            <mxPoint x="389" y="516" as="sourcePoint" />
            <mxPoint x="439" y="466" as="targetPoint" />
          </mxGeometry>
        </mxCell>
        <mxCell id="zbtpmyKSqZWRyj-pE0QG-57" value="" style="endArrow=none;html=1;rounded=0;entryX=0.5;entryY=0;entryDx=0;entryDy=0;exitX=0.5;exitY=1;exitDx=0;exitDy=0;" edge="1" parent="1" source="zbtpmyKSqZWRyj-pE0QG-54" target="zbtpmyKSqZWRyj-pE0QG-6">
          <mxGeometry width="50" height="50" relative="1" as="geometry">
            <mxPoint x="347" y="349" as="sourcePoint" />
            <mxPoint x="426" y="411" as="targetPoint" />
          </mxGeometry>
        </mxCell>
        <mxCell id="zbtpmyKSqZWRyj-pE0QG-59" value="" style="endArrow=none;html=1;rounded=0;entryX=0.5;entryY=0;entryDx=0;entryDy=0;exitX=0.5;exitY=1;exitDx=0;exitDy=0;" edge="1" parent="1" source="zbtpmyKSqZWRyj-pE0QG-55" target="zbtpmyKSqZWRyj-pE0QG-6">
          <mxGeometry width="50" height="50" relative="1" as="geometry">
            <mxPoint x="574" y="324" as="sourcePoint" />
            <mxPoint x="653" y="386" as="targetPoint" />
          </mxGeometry>
        </mxCell>
        <mxCell id="zbtpmyKSqZWRyj-pE0QG-60" value="&lt;u&gt;系部号&lt;/u&gt;" style="ellipse;whiteSpace=wrap;html=1;" vertex="1" parent="1">
          <mxGeometry y="284" width="79" height="39" as="geometry" />
        </mxCell>
        <mxCell id="zbtpmyKSqZWRyj-pE0QG-61" value="系名" style="ellipse;whiteSpace=wrap;html=1;" vertex="1" parent="1">
          <mxGeometry x="84" y="284" width="79" height="39" as="geometry" />
        </mxCell>
        <mxCell id="zbtpmyKSqZWRyj-pE0QG-62" value="系主任" style="ellipse;whiteSpace=wrap;html=1;" vertex="1" parent="1">
          <mxGeometry x="166" y="284" width="79" height="39" as="geometry" />
        </mxCell>
        <mxCell id="zbtpmyKSqZWRyj-pE0QG-63" value="" style="endArrow=none;html=1;rounded=0;entryX=0.5;entryY=1;entryDx=0;entryDy=0;exitX=0.5;exitY=0;exitDx=0;exitDy=0;" edge="1" parent="1" source="zbtpmyKSqZWRyj-pE0QG-8" target="zbtpmyKSqZWRyj-pE0QG-60">
          <mxGeometry width="50" height="50" relative="1" as="geometry">
            <mxPoint x="389" y="516" as="sourcePoint" />
            <mxPoint x="439" y="466" as="targetPoint" />
          </mxGeometry>
        </mxCell>
        <mxCell id="zbtpmyKSqZWRyj-pE0QG-64" value="" style="endArrow=none;html=1;rounded=0;entryX=0.5;entryY=1;entryDx=0;entryDy=0;exitX=0.5;exitY=0;exitDx=0;exitDy=0;" edge="1" parent="1" source="zbtpmyKSqZWRyj-pE0QG-8" target="zbtpmyKSqZWRyj-pE0QG-61">
          <mxGeometry width="50" height="50" relative="1" as="geometry">
            <mxPoint x="163" y="418" as="sourcePoint" />
            <mxPoint x="105" y="356" as="targetPoint" />
          </mxGeometry>
        </mxCell>
        <mxCell id="zbtpmyKSqZWRyj-pE0QG-65" value="" style="endArrow=none;html=1;rounded=0;entryX=0.5;entryY=1;entryDx=0;entryDy=0;exitX=0.5;exitY=0;exitDx=0;exitDy=0;" edge="1" parent="1" source="zbtpmyKSqZWRyj-pE0QG-8" target="zbtpmyKSqZWRyj-pE0QG-62">
          <mxGeometry width="50" height="50" relative="1" as="geometry">
            <mxPoint x="130" y="410" as="sourcePoint" />
            <mxPoint x="156" y="348" as="targetPoint" />
          </mxGeometry>
        </mxCell>
        <mxCell id="zbtpmyKSqZWRyj-pE0QG-66" value="&lt;u&gt;班级号&lt;/u&gt;" style="ellipse;whiteSpace=wrap;html=1;" vertex="1" parent="1">
          <mxGeometry x="-93" y="587" width="79" height="39" as="geometry" />
        </mxCell>
        <mxCell id="zbtpmyKSqZWRyj-pE0QG-67" value="班长" style="ellipse;whiteSpace=wrap;html=1;" vertex="1" parent="1">
          <mxGeometry x="-93" y="631" width="79" height="39" as="geometry" />
        </mxCell>
        <mxCell id="zbtpmyKSqZWRyj-pE0QG-68" value="人数" style="ellipse;whiteSpace=wrap;html=1;" vertex="1" parent="1">
          <mxGeometry x="-93" y="675" width="79" height="39" as="geometry" />
        </mxCell>
        <mxCell id="zbtpmyKSqZWRyj-pE0QG-69" value="" style="endArrow=none;html=1;rounded=0;entryX=1;entryY=0.5;entryDx=0;entryDy=0;exitX=0;exitY=0.5;exitDx=0;exitDy=0;" edge="1" parent="1" source="zbtpmyKSqZWRyj-pE0QG-10" target="zbtpmyKSqZWRyj-pE0QG-67">
          <mxGeometry width="50" height="50" relative="1" as="geometry">
            <mxPoint x="390" y="616" as="sourcePoint" />
            <mxPoint x="440" y="566" as="targetPoint" />
          </mxGeometry>
        </mxCell>
        <mxCell id="zbtpmyKSqZWRyj-pE0QG-70" value="" style="endArrow=none;html=1;rounded=0;entryX=1;entryY=0.5;entryDx=0;entryDy=0;exitX=0;exitY=0.5;exitDx=0;exitDy=0;" edge="1" parent="1" source="zbtpmyKSqZWRyj-pE0QG-10" target="zbtpmyKSqZWRyj-pE0QG-66">
          <mxGeometry width="50" height="50" relative="1" as="geometry">
            <mxPoint x="390" y="616" as="sourcePoint" />
            <mxPoint x="440" y="566" as="targetPoint" />
          </mxGeometry>
        </mxCell>
        <mxCell id="zbtpmyKSqZWRyj-pE0QG-72" value="" style="endArrow=none;html=1;rounded=0;entryX=1;entryY=0.5;entryDx=0;entryDy=0;exitX=0;exitY=0.5;exitDx=0;exitDy=0;" edge="1" parent="1" source="zbtpmyKSqZWRyj-pE0QG-10" target="zbtpmyKSqZWRyj-pE0QG-68">
          <mxGeometry width="50" height="50" relative="1" as="geometry">
            <mxPoint x="390" y="616" as="sourcePoint" />
            <mxPoint x="440" y="566" as="targetPoint" />
          </mxGeometry>
        </mxCell>
        <mxCell id="zbtpmyKSqZWRyj-pE0QG-76" value="&lt;u&gt;课程号&lt;/u&gt;" style="ellipse;whiteSpace=wrap;html=1;" vertex="1" parent="1">
          <mxGeometry x="786" y="597" width="79" height="39" as="geometry" />
        </mxCell>
        <mxCell id="zbtpmyKSqZWRyj-pE0QG-77" value="课程名" style="ellipse;whiteSpace=wrap;html=1;" vertex="1" parent="1">
          <mxGeometry x="786" y="641" width="79" height="39" as="geometry" />
        </mxCell>
        <mxCell id="zbtpmyKSqZWRyj-pE0QG-78" value="书号" style="ellipse;whiteSpace=wrap;html=1;" vertex="1" parent="1">
          <mxGeometry x="786" y="685" width="79" height="39" as="geometry" />
        </mxCell>
        <mxCell id="zbtpmyKSqZWRyj-pE0QG-79" value="&lt;u&gt;书号&lt;/u&gt;" style="ellipse;whiteSpace=wrap;html=1;" vertex="1" parent="1">
          <mxGeometry x="541.5" y="284" width="79" height="39" as="geometry" />
        </mxCell>
        <mxCell id="zbtpmyKSqZWRyj-pE0QG-80" value="书名" style="ellipse;whiteSpace=wrap;html=1;" vertex="1" parent="1">
          <mxGeometry x="623" y="284" width="79" height="39" as="geometry" />
        </mxCell>
        <mxCell id="zbtpmyKSqZWRyj-pE0QG-81" value="作者" style="ellipse;whiteSpace=wrap;html=1;" vertex="1" parent="1">
          <mxGeometry x="707" y="284" width="79" height="39" as="geometry" />
        </mxCell>
        <mxCell id="zbtpmyKSqZWRyj-pE0QG-82" value="&lt;u&gt;班级号&lt;/u&gt;" style="ellipse;whiteSpace=wrap;html=1;" vertex="1" parent="1">
          <mxGeometry x="305" y="696" width="79" height="39" as="geometry" />
        </mxCell>
        <mxCell id="zbtpmyKSqZWRyj-pE0QG-83" value="&lt;u&gt;课程号&lt;/u&gt;" style="ellipse;whiteSpace=wrap;html=1;" vertex="1" parent="1">
          <mxGeometry x="400" y="696" width="79" height="39" as="geometry" />
        </mxCell>
        <mxCell id="zbtpmyKSqZWRyj-pE0QG-84" value="n" style="text;html=1;align=center;verticalAlign=middle;resizable=0;points=[];autosize=1;strokeColor=none;fillColor=none;" vertex="1" parent="1">
          <mxGeometry x="312" y="391" width="25" height="26" as="geometry" />
        </mxCell>
        <mxCell id="zbtpmyKSqZWRyj-pE0QG-86" value="" style="endArrow=none;html=1;rounded=0;entryX=0.5;entryY=1;entryDx=0;entryDy=0;exitX=0.5;exitY=0;exitDx=0;exitDy=0;" edge="1" parent="1" source="zbtpmyKSqZWRyj-pE0QG-82" target="zbtpmyKSqZWRyj-pE0QG-4">
          <mxGeometry width="50" height="50" relative="1" as="geometry">
            <mxPoint x="390" y="616" as="sourcePoint" />
            <mxPoint x="440" y="566" as="targetPoint" />
          </mxGeometry>
        </mxCell>
        <mxCell id="zbtpmyKSqZWRyj-pE0QG-87" value="" style="endArrow=none;html=1;rounded=0;entryX=0.5;entryY=1;entryDx=0;entryDy=0;exitX=0.5;exitY=0;exitDx=0;exitDy=0;" edge="1" parent="1" source="zbtpmyKSqZWRyj-pE0QG-83" target="zbtpmyKSqZWRyj-pE0QG-4">
          <mxGeometry width="50" height="50" relative="1" as="geometry">
            <mxPoint x="390" y="616" as="sourcePoint" />
            <mxPoint x="440" y="566" as="targetPoint" />
          </mxGeometry>
        </mxCell>
        <mxCell id="zbtpmyKSqZWRyj-pE0QG-88" value="" style="endArrow=none;html=1;rounded=0;entryX=0;entryY=0.5;entryDx=0;entryDy=0;exitX=1;exitY=0.5;exitDx=0;exitDy=0;" edge="1" parent="1" source="zbtpmyKSqZWRyj-pE0QG-13" target="zbtpmyKSqZWRyj-pE0QG-76">
          <mxGeometry width="50" height="50" relative="1" as="geometry">
            <mxPoint x="674" y="616" as="sourcePoint" />
            <mxPoint x="724" y="566" as="targetPoint" />
          </mxGeometry>
        </mxCell>
        <mxCell id="zbtpmyKSqZWRyj-pE0QG-89" value="" style="endArrow=none;html=1;rounded=0;entryX=0;entryY=0.5;entryDx=0;entryDy=0;exitX=1;exitY=0.5;exitDx=0;exitDy=0;" edge="1" parent="1" source="zbtpmyKSqZWRyj-pE0QG-13" target="zbtpmyKSqZWRyj-pE0QG-77">
          <mxGeometry width="50" height="50" relative="1" as="geometry">
            <mxPoint x="674" y="616" as="sourcePoint" />
            <mxPoint x="724" y="566" as="targetPoint" />
          </mxGeometry>
        </mxCell>
        <mxCell id="zbtpmyKSqZWRyj-pE0QG-90" value="" style="endArrow=none;html=1;rounded=0;entryX=0;entryY=0.5;entryDx=0;entryDy=0;exitX=1;exitY=0.5;exitDx=0;exitDy=0;" edge="1" parent="1" source="zbtpmyKSqZWRyj-pE0QG-13" target="zbtpmyKSqZWRyj-pE0QG-78">
          <mxGeometry width="50" height="50" relative="1" as="geometry">
            <mxPoint x="674" y="616" as="sourcePoint" />
            <mxPoint x="724" y="566" as="targetPoint" />
          </mxGeometry>
        </mxCell>
        <mxCell id="zbtpmyKSqZWRyj-pE0QG-91" value="" style="endArrow=none;html=1;rounded=0;entryX=0.5;entryY=1;entryDx=0;entryDy=0;exitX=0.5;exitY=0;exitDx=0;exitDy=0;" edge="1" parent="1" source="zbtpmyKSqZWRyj-pE0QG-11" target="zbtpmyKSqZWRyj-pE0QG-79">
          <mxGeometry width="50" height="50" relative="1" as="geometry">
            <mxPoint x="674" y="516" as="sourcePoint" />
            <mxPoint x="724" y="466" as="targetPoint" />
          </mxGeometry>
        </mxCell>
        <mxCell id="zbtpmyKSqZWRyj-pE0QG-92" value="" style="endArrow=none;html=1;rounded=0;entryX=0.5;entryY=1;entryDx=0;entryDy=0;exitX=0.5;exitY=0;exitDx=0;exitDy=0;" edge="1" parent="1" source="zbtpmyKSqZWRyj-pE0QG-11" target="zbtpmyKSqZWRyj-pE0QG-80">
          <mxGeometry width="50" height="50" relative="1" as="geometry">
            <mxPoint x="674" y="516" as="sourcePoint" />
            <mxPoint x="724" y="466" as="targetPoint" />
          </mxGeometry>
        </mxCell>
        <mxCell id="zbtpmyKSqZWRyj-pE0QG-93" value="" style="endArrow=none;html=1;rounded=0;entryX=0.5;entryY=1;entryDx=0;entryDy=0;exitX=0.5;exitY=0;exitDx=0;exitDy=0;" edge="1" parent="1" source="zbtpmyKSqZWRyj-pE0QG-11" target="zbtpmyKSqZWRyj-pE0QG-81">
          <mxGeometry width="50" height="50" relative="1" as="geometry">
            <mxPoint x="674" y="516" as="sourcePoint" />
            <mxPoint x="724" y="466" as="targetPoint" />
          </mxGeometry>
        </mxCell>
        <mxCell id="zbtpmyKSqZWRyj-pE0QG-94" value="&lt;u&gt;班级号&lt;/u&gt;" style="ellipse;whiteSpace=wrap;html=1;" vertex="1" parent="1">
          <mxGeometry x="290" y="574" width="79" height="39" as="geometry" />
        </mxCell>
        <mxCell id="zbtpmyKSqZWRyj-pE0QG-96" value="&lt;u&gt;教师编号&lt;/u&gt;" style="ellipse;whiteSpace=wrap;html=1;" vertex="1" parent="1">
          <mxGeometry x="417" y="574" width="79" height="39" as="geometry" />
        </mxCell>
        <mxCell id="zbtpmyKSqZWRyj-pE0QG-97" value="&lt;u&gt;课程号&lt;/u&gt;" style="ellipse;whiteSpace=wrap;html=1;" vertex="1" parent="1">
          <mxGeometry x="253" y="479" width="79" height="39" as="geometry" />
        </mxCell>
        <mxCell id="zbtpmyKSqZWRyj-pE0QG-98" value="&lt;u&gt;课程信息&lt;/u&gt;" style="ellipse;whiteSpace=wrap;html=1;" vertex="1" parent="1">
          <mxGeometry x="465" y="472" width="79" height="39" as="geometry" />
        </mxCell>
        <mxCell id="zbtpmyKSqZWRyj-pE0QG-99" value="" style="endArrow=none;html=1;rounded=0;entryX=0.5;entryY=1;entryDx=0;entryDy=0;exitX=1;exitY=0.5;exitDx=0;exitDy=0;" edge="1" parent="1" source="zbtpmyKSqZWRyj-pE0QG-5" target="zbtpmyKSqZWRyj-pE0QG-98">
          <mxGeometry width="50" height="50" relative="1" as="geometry">
            <mxPoint x="416" y="616" as="sourcePoint" />
            <mxPoint x="466" y="566" as="targetPoint" />
          </mxGeometry>
        </mxCell>
        <mxCell id="zbtpmyKSqZWRyj-pE0QG-100" value="" style="endArrow=none;html=1;rounded=0;entryX=1;entryY=0.5;entryDx=0;entryDy=0;exitX=0.5;exitY=0;exitDx=0;exitDy=0;" edge="1" parent="1" source="zbtpmyKSqZWRyj-pE0QG-96" target="zbtpmyKSqZWRyj-pE0QG-5">
          <mxGeometry width="50" height="50" relative="1" as="geometry">
            <mxPoint x="416" y="616" as="sourcePoint" />
            <mxPoint x="466" y="566" as="targetPoint" />
          </mxGeometry>
        </mxCell>
        <mxCell id="zbtpmyKSqZWRyj-pE0QG-101" value="" style="endArrow=none;html=1;rounded=0;entryX=0.5;entryY=1;entryDx=0;entryDy=0;exitX=0;exitY=0.5;exitDx=0;exitDy=0;" edge="1" parent="1" source="zbtpmyKSqZWRyj-pE0QG-5" target="zbtpmyKSqZWRyj-pE0QG-97">
          <mxGeometry width="50" height="50" relative="1" as="geometry">
            <mxPoint x="237" y="543" as="sourcePoint" />
            <mxPoint x="466" y="666" as="targetPoint" />
          </mxGeometry>
        </mxCell>
        <mxCell id="zbtpmyKSqZWRyj-pE0QG-102" value="" style="endArrow=none;html=1;rounded=0;entryX=0;entryY=0.5;entryDx=0;entryDy=0;exitX=0.5;exitY=0;exitDx=0;exitDy=0;" edge="1" parent="1" source="zbtpmyKSqZWRyj-pE0QG-94" target="zbtpmyKSqZWRyj-pE0QG-5">
          <mxGeometry width="50" height="50" relative="1" as="geometry">
            <mxPoint x="416" y="716" as="sourcePoint" />
            <mxPoint x="466" y="666" as="targetPoint" />
          </mxGeometry>
        </mxCell>
      </root>
    </mxGraphModel>
  </diagram>
</mxfile>
